<svg width="13" height="12" viewBox="0 0 13 12" fill="none" xmlns="http://www.w3.org/2000/svg">
<path fill-rule="evenodd" clip-rule="evenodd" d="M11.0643 0.104338C10.7305 0.306868 10.1571 0.732372 9.51411 1.25461C7.87739 2.58407 6.14363 4.36354 4.57208 6.32703L4.18114 6.81546L4.10564 6.76587C4.06408 6.73858 3.43025 6.2945 2.6971 5.77904C1.96396 5.26359 1.33646 4.82699 1.30269 4.80879C1.15131 4.72725 1.07763 4.76132 0.75186 5.06333C0.299162 5.48307 0.0283477 5.77398 0.00565925 5.86489C-0.00530876 5.90886 0.000160793 5.97668 0.0177849 6.01562C0.0354089 6.05455 0.33441 6.48273 0.682203 6.96715C2.12005 8.9698 3.39107 10.8403 3.89852 11.7004C4.06952 11.9903 4.23532 12.0694 4.39946 11.9395C4.43974 11.9076 4.57417 11.7078 4.69817 11.4954C6.22258 8.88477 8.2962 5.81285 9.8435 3.87298C10.7948 2.68031 11.4019 1.99447 12.2885 1.11088C12.9818 0.419825 13 0.398742 13 0.285232C13 0.19065 12.9823 0.15291 12.9061 0.0843902L12.8123 0L12.0241 8.73125e-05L11.236 0.000145632L11.0643 0.104338Z" fill="#00AAFF"/>
</svg>
