<svg width="12" height="12" viewBox="0 0 12 12" fill="none" xmlns="http://www.w3.org/2000/svg">
<path fill-rule="evenodd" clip-rule="evenodd" d="M5.48399 0.0132257C4.31761 0.123726 3.3077 0.518572 2.34131 1.24189C2.05478 1.45634 1.4621 2.04947 1.24781 2.33621C0.338828 3.55251 -0.0885066 4.95605 0.0152489 6.38448C0.106692 7.64344 0.543079 8.77039 1.3196 9.75294C1.49871 9.97955 2.02106 10.5023 2.24749 10.6815C3.63201 11.7774 5.37533 12.216 7.09051 11.8997C8.94554 11.5577 10.5554 10.3346 11.3812 8.63991C12.1072 7.14997 12.1965 5.51639 11.6379 3.94395C11.4494 3.4133 11.0627 2.72618 10.6803 2.24233C10.5021 2.01685 9.97904 1.49307 9.75586 1.31665C8.88339 0.626843 7.86934 0.191157 6.79806 0.0458499C6.48465 0.00334453 5.77438 -0.0143054 5.48399 0.0132257ZM6.82081 0.611C9.48228 1.03218 11.441 3.31583 11.441 5.99763C11.441 9.0698 8.88923 11.5405 5.82448 11.4356C5.03846 11.4088 4.37969 11.2498 3.66639 10.915C2.39429 10.3178 1.34655 9.15984 0.874844 7.82973C0.6504 7.19684 0.570707 6.71685 0.570707 5.99763C0.570707 5.41554 0.601008 5.15168 0.723854 4.66398C1.25577 2.55212 3.06485 0.912363 5.19308 0.613042C5.33373 0.593256 5.48047 0.572438 5.51917 0.566781C5.68172 0.543005 6.58506 0.573682 6.82081 0.611ZM5.50125 2.40733C4.45124 2.57172 3.56123 3.13351 2.99252 3.99089C2.73473 4.37957 2.57722 4.74625 2.46687 5.21463C2.40571 5.47419 2.40127 5.52712 2.40127 5.99763C2.40127 6.46815 2.40571 6.52108 2.46687 6.78064C2.68813 7.71982 3.21776 8.49174 3.99473 9.00749C4.38846 9.26883 4.78716 9.43634 5.27657 9.54602C5.48709 9.5932 5.58275 9.60038 5.99995 9.60038C6.41683 9.60038 6.51289 9.59317 6.72268 9.54616C7.0767 9.46681 7.29064 9.39154 7.60648 9.23515C8.60618 8.74023 9.29321 7.84968 9.54565 6.72156C9.59279 6.51089 9.59997 6.41515 9.59997 5.99763C9.59997 5.58044 9.59277 5.48431 9.5458 5.27436C9.22381 3.83559 8.19435 2.78844 6.78237 2.46347C6.54286 2.40836 6.44389 2.39853 6.07031 2.3928C5.83168 2.38916 5.5756 2.39569 5.50125 2.40733ZM6.10366 2.95591C6.34656 3.05746 6.57535 3.40652 6.76433 3.96383C6.83216 4.16387 6.93807 4.58789 6.93807 4.65941C6.93807 4.6752 6.62045 4.68328 5.99995 4.68328C5.37946 4.68328 5.06184 4.6752 5.06184 4.65941C5.06184 4.58789 5.16775 4.16387 5.23558 3.96383C5.41989 3.42027 5.64012 3.075 5.87096 2.96764C5.98452 2.91483 6.00317 2.91389 6.10366 2.95591ZM4.88716 3.32785C4.75653 3.60834 4.62752 4.00913 4.54907 4.37816L4.4867 4.67154L3.87135 4.67781C3.38311 4.68276 3.25597 4.67783 3.25597 4.65396C3.25597 4.63739 3.29617 4.55501 3.3453 4.47087C3.60929 4.01878 4.01146 3.61421 4.4579 3.35167C4.59402 3.27161 4.9359 3.11168 4.9723 3.11102C4.98109 3.11086 4.94277 3.20843 4.88716 3.32785ZM7.31071 3.23068C7.84687 3.47951 8.34233 3.93609 8.65236 4.46702C8.70273 4.55327 8.74394 4.63739 8.74394 4.65396C8.74394 4.67783 8.6168 4.68276 8.12856 4.67781L7.5132 4.67154L7.45084 4.37816C7.37228 4.00861 7.24333 3.60825 7.11216 3.32658C6.99457 3.07411 6.98415 3.07913 7.31071 3.23068ZM4.40307 5.4226C4.39066 5.66442 4.39064 6.33071 4.40307 6.57267L4.41271 6.76043H3.72446H3.03624L3.00624 6.64308C2.9106 6.26898 2.92425 5.57817 3.03373 5.25209C3.04151 5.22885 3.19269 5.22374 3.72821 5.22862L4.41273 5.23484L4.40307 5.4226ZM7.02674 5.26418C7.04874 5.31778 7.04874 6.67749 7.02674 6.73109C7.01108 6.7693 6.93976 6.77217 5.99995 6.77217C5.06015 6.77217 4.98883 6.7693 4.97316 6.73109C4.96388 6.70851 4.9563 6.37845 4.9563 5.99763C4.9563 5.61682 4.96388 5.28678 4.97316 5.26418C4.98883 5.22597 5.06015 5.2231 5.99995 5.2231C6.93976 5.2231 7.01108 5.22597 7.02674 5.26418ZM9.00905 5.43434C9.06757 5.71031 9.06757 6.28496 9.00905 6.56093L8.96674 6.76043L8.29864 6.76667C7.93118 6.7701 7.61984 6.76883 7.60678 6.76386C7.59088 6.75778 7.59006 6.62961 7.60432 6.37622C7.6171 6.14925 7.6171 5.84641 7.60432 5.62006C7.59262 5.41237 7.58757 5.23796 7.59313 5.23244C7.59871 5.22693 7.91005 5.22521 8.28499 5.22862L8.96674 5.23484L9.00905 5.43434ZM4.54907 7.61711C4.62763 7.98666 4.75658 8.38702 4.88775 8.66869C5.00626 8.92313 5.01587 8.91922 4.67409 8.75532C4.13339 8.49602 3.65258 8.05061 3.3453 7.5244C3.29617 7.44026 3.25597 7.35788 3.25597 7.34131C3.25597 7.31744 3.38311 7.31251 3.87135 7.31746L4.4867 7.32373L4.54907 7.61711ZM6.93807 7.33586C6.93807 7.349 6.91661 7.45887 6.89039 7.58003C6.6921 8.49592 6.25367 9.15972 5.91984 9.04948C5.74558 8.99193 5.51779 8.71877 5.37205 8.3926C5.25113 8.12194 5.06184 7.47715 5.06184 7.33586C5.06184 7.32007 5.37946 7.31199 5.99995 7.31199C6.62045 7.31199 6.93807 7.32007 6.93807 7.33586ZM8.74394 7.3417C8.74394 7.35804 8.70273 7.44199 8.65236 7.52825C8.34233 8.05918 7.84687 8.51575 7.31071 8.76459C6.98418 8.91614 6.99454 8.92114 7.11232 8.66869C7.24028 8.39439 7.38682 7.93798 7.45415 7.60392C7.4826 7.46272 7.51067 7.33929 7.51653 7.32959C7.52237 7.3199 7.80092 7.31199 8.13555 7.31199C8.61071 7.31199 8.74394 7.31849 8.74394 7.3417Z" fill="#6C6C6C"/>
</svg>
