<svg width="84" height="84" viewBox="0 0 84 84" fill="none" xmlns="http://www.w3.org/2000/svg">
<path d="M23.6702 28.8118V35.9134L25.0737 34.6808C27.0823 32.9175 28.8465 32.2731 31.686 32.2666C35.4694 32.2582 38.1795 33.9249 39.4926 37.0682C39.9754 38.2237 40.0835 40.3321 40.0835 48.6106V58.739H36.839H33.5945L33.5853 50.4361C33.5754 41.2177 33.3315 39.4766 31.8757 38.2203C29.9176 36.5311 26.12 37.4824 24.6374 40.0336C23.9301 41.251 23.8504 42.1416 23.7397 50.0544L23.6187 58.739H20.2089H16.7995V40.2244V21.7099H20.2349H23.6702V28.8118Z" fill="white"/>
<path d="M50.3894 28.8061V35.9023L51.5857 34.8957C53.8381 33.0003 55.7432 32.2616 58.4087 32.2513C61.5718 32.2387 64.1571 33.4053 65.5148 35.4572C66.8447 37.4667 67.1676 40.3413 67.1768 50.2452L67.1844 58.739H63.7678H60.3511L60.237 49.1634L60.1229 39.5881L58.8762 38.4745C56.6059 36.4471 52.9014 37.327 51.3628 40.2596C50.6555 41.6083 50.5681 42.5668 50.4532 50.2452L50.3261 58.739H47.1133H43.9005V40.2244V21.7099H47.145H50.3894V28.8061Z" fill="white"/>
<path fill-rule="evenodd" clip-rule="evenodd" d="M34.2136 0.544056C28.209 1.73701 21.8411 4.51076 17.2038 7.95218C14.3471 10.0724 9.61055 14.8679 7.5379 17.7378C0.057658 28.0972 -2.06309 42.7894 2.11199 55.327C6.9142 69.7482 19.6902 80.7458 34.6942 83.3737C52.9442 86.5705 71.2774 77.3074 79.6733 60.6478C86.602 46.8992 85.1031 29.4394 75.9376 17.1396C69.412 8.38203 60.1488 2.56119 49.4932 0.522297C45.806 -0.183166 37.8161 -0.172096 34.2136 0.544056ZM23.6702 35.9134V28.8118V21.7099H20.2349H16.7995V40.2244V58.739H20.2089H23.6187L23.7397 50.0544C23.8504 42.1416 23.9301 41.251 24.6374 40.0336C26.12 37.4824 29.9176 36.5311 31.8757 38.2203C33.3315 39.4766 33.5754 41.2177 33.5853 50.4361L33.5945 58.739H36.839H40.0835V48.6106C40.0835 40.3321 39.9754 38.2237 39.4926 37.0682C38.1795 33.9249 35.4694 32.2582 31.686 32.2666C28.8465 32.2731 27.0823 32.9175 25.0737 34.6808L23.6702 35.9134ZM50.3894 35.9023V28.8061V21.7099H47.145H43.9005V40.2244V58.739H47.1133H50.3261L50.4532 50.2452C50.5681 42.5668 50.6555 41.6083 51.3628 40.2596C52.9014 37.327 56.6059 36.4471 58.8762 38.4745L60.1229 39.5881L60.237 49.1634L60.3511 58.739H63.7678H67.1844L67.1768 50.2452C67.1676 40.3413 66.8447 37.4667 65.5148 35.4572C64.1571 33.4053 61.5718 32.2387 58.4087 32.2513C55.7432 32.2616 53.8381 33.0003 51.5857 34.8957L50.3894 35.9023Z" fill="#D20A11"/>
</svg>
