<svg width="54" height="57" viewBox="0 0 54 57" fill="none" xmlns="http://www.w3.org/2000/svg">
<path fill-rule="evenodd" clip-rule="evenodd" d="M5.11738 0.119121C4.62277 0.317953 4.20846 0.687896 3.96205 1.15046C3.72584 1.594 3.71352 1.75397 3.6797 4.81494L3.64444 8.01562H2.97173C2.04706 8.01562 1.51697 8.19932 0.920118 8.72668C0.254621 9.31482 0.00487344 9.88015 0.00487344 10.7988C0.00487344 11.6493 0.238099 12.2453 0.786044 12.7954C1.2924 13.3037 1.89258 13.5497 2.85562 13.6437L3.65962 13.7221V16.4353V19.1484L2.96651 19.1491C1.99649 19.1499 1.55079 19.3022 0.940857 19.8412C0.254955 20.4473 0.00487344 21.0059 0.00487344 21.9316C0.00487344 22.7825 0.237543 23.3741 0.787263 23.9213C1.36315 24.4945 1.92541 24.7096 2.85562 24.7124L3.65962 24.7148V27.498V30.2812L2.85562 30.2837C1.89624 30.2866 1.34773 30.5077 0.753988 31.1308C0.21192 31.6997 0 32.2431 0 33.0645C0 33.8858 0.21192 34.4292 0.753988 34.9981C1.34773 35.6212 1.89624 35.8423 2.85562 35.8452L3.65962 35.8477V38.6309V41.4141L2.85562 41.4165C1.92541 41.4193 1.36315 41.6344 0.787263 42.2076C0.237543 42.7548 0.00487344 43.3464 0.00487344 44.1973C0.00487344 45.123 0.254955 45.6816 0.940857 46.2877C1.54969 46.8256 1.99672 46.979 2.95887 46.9798L3.64444 46.9805L3.6797 50.1812C3.71375 53.2604 3.72461 53.3998 3.96681 53.8549C4.10521 54.115 4.42593 54.4657 4.67945 54.6342L5.14045 54.9404L16.682 54.9715C23.0298 54.9886 28.3348 54.9754 28.471 54.9421C28.6071 54.9088 28.7981 54.7268 28.8956 54.5378C29.1144 54.1128 28.9623 53.6435 28.5434 53.452C28.3448 53.3611 25.1311 53.3262 16.97 53.3262C6.79781 53.3262 5.65413 53.3086 5.49554 53.1494C5.34206 52.9953 5.32331 52.5933 5.34904 50.0044L5.37854 47.0361L6.26572 46.974C7.60825 46.8801 8.37721 46.3875 8.86283 45.3105C9.29988 44.3414 9.07643 43.0454 8.33852 42.2691C7.76639 41.6672 7.35651 41.4943 6.33492 41.4242L5.37854 41.3584V38.6309V35.9033L6.32172 35.8384C7.07117 35.7869 7.35607 35.7152 7.70795 35.49C8.29848 35.1119 8.59047 34.78 8.8625 34.1777C9.28525 33.2417 9.08008 31.9327 8.39363 31.1863C7.84302 30.5877 7.31348 30.3587 6.32172 30.2905L5.37854 30.2256V27.498V24.7705L6.33492 24.7047C7.35651 24.6346 7.76639 24.4617 8.33852 23.8598C9.07643 23.0836 9.29988 21.7875 8.86283 20.8184C8.37721 19.7414 7.60825 19.2489 6.26572 19.1549L5.37854 19.0928L5.34893 16.4087L5.31921 13.7244L6.17157 13.6469C7.18018 13.5551 7.57619 13.4058 8.14887 12.9009C9.0355 12.1194 9.34069 10.7453 8.86283 9.68555C8.37721 8.60856 7.60825 8.11604 6.26572 8.02208L5.37854 7.95996L5.34904 4.99173C5.32331 2.40279 5.34206 2.00079 5.49554 1.84671C5.64803 1.69363 6.08828 1.66992 8.77611 1.66992C10.5515 1.66992 11.966 1.62405 12.08 1.56282C12.1895 1.50393 12.3399 1.30866 12.4141 1.12898C12.525 0.860121 12.5186 0.743338 12.378 0.47025C12.2839 0.287672 12.1262 0.107209 12.0274 0.0691346C11.7387 -0.0420822 5.40438 0.0036738 5.11738 0.119121ZM14.4672 0.273311C14.1406 0.601061 14.1186 0.994049 14.4068 1.35141L14.6189 1.61426L26.5224 1.66992L38.4261 1.72559L39.0914 2.0373C39.9576 2.44298 40.7152 3.1999 41.1071 4.05123L41.4203 4.73145L41.4757 12.819C41.5289 20.5733 41.5398 20.9161 41.7425 21.1408C42.0182 21.4465 42.6185 21.4524 42.9174 21.1523C43.1351 20.9338 43.1392 20.7824 43.1375 12.9976C43.1358 4.11346 43.1425 4.20253 42.3631 2.88306C41.5452 1.49859 40.0162 0.392766 38.5443 0.121348C38.0965 0.0387422 34.1897 0 26.3128 0H14.7393L14.4672 0.273311ZM17.9706 6.8036C17.3065 7.00621 16.4458 7.6645 16.0374 8.28214C15.0727 9.74121 15.2502 11.6415 16.4654 12.8613C17.2137 13.6124 17.8472 13.8604 19.019 13.8604C19.8537 13.8604 20.1073 13.8157 20.5686 13.5878C21.2722 13.2404 21.9501 12.5598 22.2962 11.8536C22.6829 11.0648 22.6882 9.54171 22.3072 8.76486C21.9739 8.08532 21.2554 7.36614 20.5658 7.02169C19.9512 6.71476 18.6266 6.60343 17.9706 6.8036ZM20.0085 8.61702C21.269 9.35858 21.2725 11.2764 20.0148 11.9915C18.7048 12.7364 17.0782 11.7982 17.0782 10.2979C17.0782 8.79715 18.717 7.8572 20.0085 8.61702ZM7.106 10.011C7.81607 10.7238 7.36959 11.8075 6.29932 11.9686C6.02363 12.0101 5.01823 12.0269 4.06528 12.0058L2.33274 11.9678L2.00647 11.6338C1.51076 11.1261 1.50333 10.4971 1.98762 10.011L2.31177 9.68555H4.54681H6.78185L7.106 10.011ZM16.7845 18.3784C14.5277 20.4063 14.4167 20.5253 14.4167 20.9164C14.4167 21.2983 14.8294 21.709 15.213 21.709C15.5849 21.709 16.043 21.3398 18.6863 18.9101L19.019 18.6044L20.1279 19.609C22.1067 21.4016 22.5024 21.709 22.8314 21.709C23.2172 21.709 23.6212 21.2934 23.6212 20.8964C23.6212 20.5248 23.4457 20.3376 21.2066 18.3231C19.6369 16.9106 19.3531 16.6992 19.0275 16.6992C18.7015 16.6992 18.4121 16.9157 16.7845 18.3784ZM18.6664 20.2828C18.2818 20.4693 18.1609 20.9305 18.2038 22.0475C18.2386 22.9573 18.2703 23.0872 18.5045 23.2775C18.859 23.5656 19.3153 23.547 19.6096 23.2326C19.8226 23.005 19.8507 22.8502 19.8507 21.9057C19.8507 20.6533 19.8155 20.5295 19.3991 20.3133C19.0381 20.1258 18.9936 20.124 18.6664 20.2828ZM7.106 21.1438C7.82018 21.8608 7.3696 22.9403 6.28802 23.103C6.006 23.1455 5.00082 23.1624 4.0542 23.1404L2.33306 23.1006L2.00669 22.7666C1.51076 22.2591 1.50333 21.6299 1.98762 21.1438L2.31177 20.8184H4.54681H6.78185L7.106 21.1438ZM32.047 23.1031L31.7842 23.3841L32.2018 28.0294C32.4316 30.5844 32.6657 32.8194 32.7222 32.9962C32.892 33.5282 33.1093 33.6136 34.3026 33.6175L35.3912 33.6211L35.3236 34.7622C35.2602 35.833 34.8219 46.3834 34.8219 46.8392C34.8219 46.9609 34.6147 47.1956 34.3282 47.3983C33.7527 47.8054 33.4133 48.4069 33.2956 49.2279C33.2135 49.8003 33.2023 49.8147 32.7693 49.9039C32.1434 50.0329 31.5001 50.5157 31.1092 51.1498L30.7741 51.6937L30.7385 54.0656L30.7029 56.4377L30.9831 56.7189L31.2631 57H42.2417C50.2646 57 53.2957 56.9656 53.4997 56.8723C53.9591 56.6622 54.0387 56.1832 53.9857 53.9522C53.9448 52.232 53.9046 51.8606 53.713 51.4336C53.4019 50.7402 52.7108 50.1463 51.9601 49.9272C51.3482 49.7486 51.3456 49.746 51.3456 49.3069C51.3456 48.507 50.8171 47.6232 50.1199 47.2573L49.8367 47.1087L49.7026 43.7101C49.6287 41.8408 49.5366 40.2283 49.4978 40.1267C49.3889 39.8418 48.8101 39.639 48.4576 39.7624C47.9079 39.9548 47.895 40.1046 48.0718 44.217C48.2507 48.378 48.2659 48.4558 48.9298 48.5974C49.4466 48.7077 49.6822 48.9563 49.6822 49.3913V49.7637H42.3075H34.9328V49.4545C34.9328 49.012 35.2016 48.6872 35.6357 48.6054C36.4517 48.4518 36.3923 48.8699 36.7263 40.9316C36.8916 37.0027 37.0298 33.7506 37.0333 33.7046C37.037 33.6586 39.4352 33.6211 42.3629 33.6211H47.686L47.6929 34.7622C47.7037 36.5637 47.8272 37.517 48.0732 37.6976C48.4206 37.9526 48.97 37.8908 49.2227 37.5681C49.4311 37.3023 49.4409 37.1712 49.3801 35.4529L49.3154 33.6211H50.391C51.3851 33.6211 51.4873 33.6004 51.7388 33.3478C51.8885 33.1975 52.0114 32.9846 52.0119 32.8746C52.0124 32.7648 52.1865 30.8212 52.3988 28.5557C52.8643 23.5892 52.8705 23.3541 52.5446 23.0493C52.3187 22.8379 52.1616 22.8223 50.2639 22.8223C49.143 22.8223 48.1346 22.8714 48.023 22.9313C47.7164 23.096 47.5751 23.6461 47.5751 24.6758V25.6055H46.816H46.0568L45.9202 24.4644C45.7104 22.7137 45.9461 22.8223 42.3558 22.8223C38.7456 22.8223 38.9797 22.7245 38.7537 24.3265C38.6674 24.9382 38.5957 25.476 38.5945 25.522C38.5934 25.568 38.2431 25.6055 37.8161 25.6055H37.0398V24.4872C37.0398 23.4482 37.0205 23.3494 36.7676 23.0956C36.4979 22.8247 36.4767 22.8223 34.4027 22.8223H32.3099L32.047 23.1031ZM35.3764 25.5904C35.3764 26.5329 35.409 26.7303 35.6063 26.982L35.836 27.2754H37.7494C40.1012 27.2754 40.0618 27.2991 40.2456 25.7725C40.3119 25.2214 40.3663 24.7079 40.3664 24.6313C40.3667 24.5254 40.829 24.4922 42.3075 24.4922C43.3749 24.4922 44.2493 24.5048 44.2506 24.52C44.252 24.5353 44.3208 25.0634 44.4039 25.6935C44.6206 27.3395 44.5206 27.2754 46.8715 27.2754C49.3166 27.2754 49.2386 27.3286 49.2386 25.6611V24.4922H50.185H51.1315L51.0691 25.021C50.9685 25.8734 50.4585 31.4706 50.4585 31.7217V31.9512H42.365H34.2716L34.2207 31.7007C34.1543 31.3745 33.5999 25.198 33.6011 24.7983L33.602 24.4922H34.4892H35.3764V25.5904ZM18.9536 25.3685C18.7747 25.514 18.6989 25.6902 18.7025 25.9529C18.7096 26.4873 19.1777 27.9357 19.4226 28.1816C19.8748 28.6355 20.7379 28.2829 20.7379 27.6443C20.7379 27.4798 20.6349 26.9663 20.5089 26.5032C20.175 25.2756 19.5915 24.8499 18.9536 25.3685ZM20.7588 30.0629C20.398 30.4004 20.4597 30.7725 21.0285 31.6887C21.7813 32.9011 22.2402 33.125 22.8069 32.5561C23.0281 32.334 23.0771 32.1984 23.0271 31.9474C22.9625 31.6225 22.3239 30.553 21.9162 30.0864C21.6369 29.7669 21.0873 29.7557 20.7588 30.0629ZM6.56569 31.9556C7.09723 32.1038 7.43015 32.5309 7.43015 33.0645C7.43015 33.598 7.09723 34.0251 6.56569 34.1733C6.03294 34.3218 3.06067 34.3218 2.52792 34.1733C1.40541 33.8603 1.36726 32.2842 2.47446 31.9625C2.96285 31.8207 6.06288 31.8155 6.56569 31.9556ZM23.864 33.9594C23.7067 34.1065 23.6212 34.319 23.6212 34.5628C23.6212 34.8862 23.7262 35.0344 24.3651 35.6133C24.7743 35.984 25.2361 36.3318 25.3915 36.3862C25.7527 36.5126 26.1109 36.3786 26.3368 36.0325C26.6279 35.5865 26.448 35.2328 25.5308 34.4472C24.6205 33.6675 24.2819 33.5684 23.864 33.9594ZM27.8858 36.9003C27.594 37.1931 27.5427 37.5107 27.7303 37.8625C27.856 38.0983 29.6129 38.9648 29.9652 38.9648C30.5277 38.9648 30.9238 38.3404 30.6803 37.8376C30.5329 37.5332 28.8459 36.627 28.4267 36.627C28.2789 36.627 28.0355 36.75 27.8858 36.9003ZM15.8958 41.2445C15.576 41.4693 15.4856 41.9056 15.6817 42.2779C15.7701 42.4456 16.2943 43.032 16.8466 43.5807L17.8508 44.5786L16.6882 45.7629C15.9872 46.477 15.5257 47.0362 15.5257 47.1715C15.5257 47.5851 15.945 47.9824 16.3816 47.9824C16.7341 47.9824 16.901 47.8606 17.8995 46.8744L19.0211 45.7662L20.1396 46.8744C21.1369 47.8623 21.3012 47.9824 21.6553 47.9824C22.0929 47.9824 22.5122 47.5856 22.5122 47.1715C22.5122 47.0362 22.0507 46.477 21.3497 45.7629L20.1872 44.5786L21.1913 43.5807C22.5764 42.2044 22.7406 41.8558 22.24 41.3534C21.7348 40.8462 21.4623 40.9605 20.2388 42.1934C19.6312 42.8057 19.0823 43.3066 19.019 43.3066C18.9556 43.3066 18.4067 42.8057 17.7991 42.1934C16.6372 41.0225 16.388 40.8983 15.8958 41.2445ZM6.56569 43.0884C7.44046 43.3324 7.73224 44.3565 7.106 44.9851L6.78185 45.3105H4.54681H2.31177L1.98762 44.9851C1.68176 44.6781 1.60813 44.4382 1.66037 43.9189C1.69219 43.6022 2.196 43.1039 2.538 43.0509C3.17134 42.9528 6.17966 42.9808 6.56569 43.0884ZM51.6783 51.6286C52.2096 51.8951 52.3299 52.3217 52.3375 53.9663L52.3437 55.3301H42.3629H32.3821L32.3846 53.7437C32.3872 52.0216 32.4578 51.7893 33.0475 51.5569C33.2202 51.4889 36.7148 51.4451 42.3075 51.4408C50.6457 51.4345 51.318 51.448 51.6783 51.6286Z" fill="#000041"/>
</svg>
