<svg width="57" height="55" viewBox="0 0 57 55" fill="none" xmlns="http://www.w3.org/2000/svg">
<path fill-rule="evenodd" clip-rule="evenodd" d="M21.4541 0.173273C20.5527 0.638948 20.2835 1.19462 20.2835 2.58999V3.64347H14.9387C11.2589 3.64347 9.50921 3.68168 9.32218 3.76605C9.05011 3.88896 8.80311 4.28208 8.80311 4.59238C8.80311 4.68337 8.92628 4.87972 9.07675 5.02879L9.35027 5.29989H28.5184H47.6865L47.9175 5.59087C48.1419 5.87357 48.1485 6.00045 48.1485 10.044V14.206L48.4064 14.4462C48.8325 14.8428 49.3897 14.7493 49.6573 14.2366C49.7917 13.9793 49.8204 13.2169 49.8204 9.90817C49.8204 5.44168 49.7754 5.0829 49.1334 4.43237C48.3585 3.64712 49.0987 3.702 38.8238 3.66865L29.5549 3.63862L29.5169 2.50065C29.4827 1.47765 29.448 1.31631 29.1723 0.904086C28.5921 0.0361211 28.417 -0.000761838 24.8857 1.11581e-05C22.2946 0.000563298 21.7336 0.0289433 21.4541 0.173273ZM27.7951 1.83047C27.8324 1.92654 27.8628 2.37377 27.8628 2.82432V3.64347H24.9091H21.9554V2.72328C21.9554 2.21707 21.9888 1.76984 22.0297 1.72942C22.0705 1.6889 23.3693 1.65577 24.9158 1.65577C27.3768 1.65577 27.7359 1.67752 27.7951 1.83047ZM1.65685 3.79266C0.981739 4.03693 0.542249 4.42221 0.264602 5.01289L0 5.57596V23.0788V40.5817L0.261704 41.1338C0.569557 41.7831 0.774423 41.9818 1.44876 42.2848C1.9121 42.4931 2.17269 42.5095 5.04134 42.5117L8.13435 42.5141V43.595C8.13435 44.8551 8.375 45.4878 9.01467 45.9089C9.39196 46.1573 9.41057 46.1583 13.8287 46.1583C16.2682 46.1583 18.2852 46.1956 18.3112 46.2411C18.3372 46.2867 17.4646 48.0383 16.3723 50.1337C15.2798 52.2291 14.3838 54.0714 14.3811 54.2279C14.3701 54.8564 15.3376 55.2444 15.7607 54.7812C15.8669 54.665 16.9247 52.6896 18.1113 50.3916L20.2689 46.2135L24.8427 46.1847L29.4164 46.1558L29.5808 46.4055C29.6711 46.5429 30.666 48.4332 31.7915 50.6064C32.9171 52.7795 33.9225 54.6555 34.0258 54.7751C34.3102 55.1039 34.9217 55.0661 35.211 54.7015C35.3381 54.5415 35.4421 54.335 35.4421 54.2426C35.4421 54.1502 34.5392 52.3219 33.4358 50.1798C32.3323 48.0376 31.4295 46.2564 31.4295 46.2217C31.4295 46.1868 33.4156 46.1583 35.8432 46.1583C40.8124 46.1583 40.7882 46.1618 41.3304 45.3502C41.5951 44.9538 41.6301 44.7836 41.6671 43.7111L41.7085 42.5141H44.3005C46.7539 42.5141 46.9081 42.5019 47.1861 42.2852C47.3991 42.1193 47.4798 41.9546 47.4798 41.6859C47.4798 41.4173 47.3991 41.2526 47.1861 41.0866L46.8924 40.8577H24.5039C2.26409 40.8577 2.11406 40.8563 1.89259 40.6369C1.67156 40.4179 1.66967 40.2688 1.66967 23.0788C1.66967 5.88881 1.67156 5.73973 1.89259 5.52075C2.10069 5.31458 2.26408 5.29989 4.34973 5.29989C6.57335 5.29989 6.58539 5.29857 6.85758 5.02879C7.18572 4.7038 7.2079 4.31399 6.91833 3.95941C6.70834 3.70211 6.67468 3.69836 4.38261 3.67274C2.67995 3.65374 1.95222 3.68577 1.65685 3.79266ZM35.5501 8.55498C34.3664 8.93176 33.5974 10.0643 33.6794 11.3105C33.7036 11.6791 33.8092 12.15 33.9141 12.3567C34.0188 12.5634 34.1045 12.7769 34.1045 12.8312C34.1045 12.8854 33.1037 14.3108 31.8805 15.9988L29.6565 19.0678L28.841 19.0608C28.1261 19.0546 27.9493 19.0963 27.4075 19.3992L26.7895 19.7448L25.3102 18.8995L23.8311 18.0543L23.804 17.3918C23.7416 15.8605 22.5938 14.7569 21.0637 14.7569C19.5169 14.7569 18.4343 15.796 18.2851 17.4236L18.2215 18.1179L16.773 18.9276L15.3244 19.7371L14.726 19.4025C13.619 18.7836 12.2457 18.9997 11.3811 19.929C9.81573 21.6114 10.8507 24.2784 13.1493 24.4849C14.7654 24.6301 16.0118 23.5355 16.1338 21.8641L16.1862 21.1463L17.641 20.3285L19.0959 19.5107L19.6618 19.8316C20.1484 20.1074 20.345 20.1525 21.0637 20.1525C21.7797 20.1525 21.9797 20.1071 22.4576 19.836L23.0156 19.5195L24.489 20.3329L25.9625 21.1463L25.9676 21.7537C25.9874 24.0544 28.5998 25.3219 30.4463 23.9266C30.6608 23.7645 30.9799 23.3708 31.1554 23.0516C31.5711 22.2963 31.5987 21.2828 31.2234 20.5647L30.9772 20.0935L33.2375 16.9544L35.4978 13.8152L36.1371 13.8798C36.9296 13.9599 37.6252 13.7219 38.2636 13.1523C39.3832 12.1532 39.4547 10.3648 38.4179 9.29319C37.6752 8.5255 36.5515 8.23629 35.5501 8.55498ZM37.0854 10.2915C37.1814 10.3703 37.3281 10.5964 37.4113 10.7937C37.5397 11.0979 37.5389 11.2092 37.4059 11.5246C37.1188 12.2054 36.5348 12.4226 35.8857 12.0901C34.8395 11.5541 35.3706 9.93257 36.5387 10.096C36.7435 10.1246 36.9895 10.2125 37.0854 10.2915ZM41.6964 15.4026C39.4988 15.8946 37.6766 16.8735 36.1585 18.3777C34.8299 19.6939 33.8023 21.4468 33.3053 23.2445C33.0993 23.9895 33.0606 24.4218 33.058 26.0052C33.0547 28.1498 33.2062 28.8956 33.9754 30.522C35.0635 32.8225 36.7458 34.5512 38.9616 35.6457C39.9779 36.1477 40.6208 36.3662 41.7951 36.6081C42.7479 36.8046 44.7893 36.8343 45.6837 36.6648C46.0139 36.6023 46.2978 36.551 46.3147 36.551C46.3315 36.551 47.4523 38.4538 48.8053 40.7795C50.1584 43.1052 51.427 45.1717 51.6244 45.3718C52.241 45.9966 52.975 46.2932 53.9044 46.2932C54.8499 46.2932 55.4661 46.0495 56.0945 45.4269C56.7285 44.7988 57.0017 44.1366 57 43.2319C56.9982 42.2374 56.9755 42.1906 54.133 37.3278L51.8437 33.4112L52.175 33.0211C54.7448 29.9941 55.47 25.5795 53.99 21.971C52.74 18.9233 50.1159 16.5841 46.861 15.6161C46.0051 15.3615 45.6184 15.3141 44.1359 15.2814C42.9097 15.2543 42.2018 15.2894 41.6964 15.4026ZM21.8049 16.6896C22.3275 17.1759 22.2248 18.0763 21.6109 18.3908C20.5476 18.9355 19.4629 17.7578 20.1874 16.8454C20.626 16.2929 21.3082 16.2272 21.8049 16.6896ZM45.7559 17.06C49.1264 17.7106 51.9404 20.3859 52.8416 23.7966C53.1624 25.0105 53.1611 26.9727 52.8386 28.2137C52.2118 30.6265 50.5647 32.7757 48.4411 33.9523C46.8979 34.8074 45.5327 35.1476 43.7145 35.1303C41.642 35.1105 39.725 34.4305 38.0713 33.1285C36.6751 32.0293 35.694 30.6227 35.0718 28.8281C34.7909 28.0181 34.7363 27.6685 34.6907 26.3916C34.627 24.6028 34.8565 23.4402 35.5516 22.0297C37.4347 18.2095 41.4867 16.2361 45.7559 17.06ZM42.8542 18.2292C40.6062 18.5291 38.5079 19.8151 37.2794 21.6458C35.1975 24.7484 35.5921 28.8424 38.2273 31.4815C39.5607 32.8169 41.0622 33.541 42.995 33.7807C46.42 34.2055 49.8826 32.1696 51.1945 28.9595C51.9171 27.1914 51.9711 25.4232 51.3619 23.4923C50.9791 22.2793 50.436 21.9128 49.7797 22.4243C49.4095 22.7127 49.4097 22.9625 49.7811 24.0427C50.0157 24.725 50.0755 25.1046 50.0734 25.8947C50.07 27.123 49.9234 27.7633 49.4086 28.7994C48.9352 29.7519 48.3021 30.4819 47.4405 31.0692C43.2475 33.9269 37.6382 31.0313 37.6306 26.0052C37.628 24.2799 38.2183 22.8708 39.4629 21.6313C41.5214 19.581 44.6134 19.2297 47.1675 20.7558C48.0054 21.2565 48.3302 21.3037 48.6847 20.9764C49.0792 20.6123 49.0148 20.0732 48.5295 19.6769C47.196 18.5878 44.7821 17.9721 42.8542 18.2292ZM14.1811 21.0967C15.0294 22.0077 13.8138 23.3663 12.7616 22.6833C12.2172 22.3298 12.1477 21.4424 12.6301 21.0022C13.1151 20.5594 13.7146 20.5961 14.1811 21.0967ZM29.3854 20.929C29.5179 21.0139 29.6842 21.2571 29.7549 21.4695C30.1082 22.5299 28.7667 23.3288 27.9657 22.5352C27.0069 21.5853 28.2371 20.1935 29.3854 20.929ZM19.0597 24.6524C18.5043 24.9385 18.5035 24.9467 18.5018 31.096C18.5007 34.8329 18.5412 36.9659 18.6172 37.1819C18.7977 37.6953 19.0997 37.7657 21.1185 37.7657C22.8898 37.7657 22.9558 37.7576 23.2588 37.4993L23.5716 37.2327V31.1526V25.0727L23.318 24.8211C23.077 24.5822 22.9714 24.5682 21.2003 24.5398C19.8448 24.518 19.2606 24.5488 19.0597 24.6524ZM21.9554 31.1401V36.1093H21.0637H20.172V31.1401V26.1708H21.0637H21.9554V31.1401ZM11.1283 29.0321L10.8651 29.2432V33.238V37.2326L11.1779 37.4992C11.4809 37.7576 11.5468 37.7657 13.3182 37.7657C15.2998 37.7657 15.6237 37.6953 15.8218 37.2214C15.9059 37.0202 15.9349 35.7143 15.9129 33.1062C15.8828 29.5292 15.8673 29.2708 15.6685 29.0534C15.4674 28.8334 15.3479 28.8211 13.4238 28.8211C11.5889 28.8211 11.3658 28.8416 11.1283 29.0321ZM26.4219 29.112C26.1984 29.3935 26.1909 29.5259 26.1909 33.1927C26.1909 35.7349 26.2316 37.0709 26.3146 37.2515C26.5189 37.6957 26.8573 37.7657 28.8004 37.7657C30.4717 37.7657 30.643 37.7472 30.9129 37.5368L31.2066 37.308V33.2853C31.2066 29.41 31.1984 29.2547 30.9837 29.0419C30.7769 28.8371 30.6122 28.8211 28.7069 28.8211H26.6529L26.4219 29.112ZM14.2647 33.2934V36.1093H13.373H12.4813V33.2934V30.4775H13.373H14.2647V33.2934ZM29.6202 33.2658L29.5904 36.0541L28.7266 36.0863L27.8628 36.1186V33.298V30.4775H28.7564H29.6499L29.6202 33.2658ZM34.1553 33.951C33.8919 34.2118 33.8816 34.2776 33.8816 35.7056C33.8816 37.8214 33.7441 37.7105 36.368 37.7105C38.2374 37.7105 38.4498 37.6911 38.6627 37.5002C38.9836 37.2125 38.9723 36.6594 38.6394 36.3494C38.4027 36.1292 38.2655 36.1093 36.9785 36.1093H35.5757L35.5367 35.1056C35.5019 34.2086 35.4698 34.0795 35.2346 33.8909C34.8769 33.6039 34.4834 33.6258 34.1553 33.951ZM53.0037 38.697C55.5414 43.0557 55.6226 43.2542 55.151 43.9497C54.5812 44.79 53.593 44.9198 52.8896 44.2468C52.5944 43.9644 48.3169 36.7829 48.0808 36.1736C48.0362 36.0583 48.2389 35.8992 48.7798 35.6246C49.1989 35.4121 49.7662 35.0876 50.0407 34.9037C50.3151 34.7197 50.5742 34.6051 50.6166 34.649C50.6589 34.693 51.7331 36.5146 53.0037 38.697ZM40.0119 43.4307C40.0119 43.9963 39.9608 44.3979 39.8782 44.4798C39.7755 44.5815 36.3086 44.6123 24.9517 44.6123C16.8156 44.6123 10.0796 44.5821 9.98258 44.5452C9.84002 44.491 9.80625 44.2898 9.80625 43.4962V42.5141H24.9091H40.0119V43.4307Z" fill="#000041"/>
</svg>
