<svg width="58" height="53" viewBox="0 0 58 53" fill="none" xmlns="http://www.w3.org/2000/svg">
<path fill-rule="evenodd" clip-rule="evenodd" d="M28.1502 0.403048C26.2202 1.54676 25.6008 2.08814 25.6008 2.6314C25.6008 2.89033 26.1285 3.34354 26.43 3.34354C26.5801 3.34354 27.1916 3.01751 27.7891 2.61903C28.3864 2.22055 28.9348 1.89453 29.0077 1.89453C29.1702 1.89453 30.7568 2.97103 31.6061 3.65752C32.4319 4.32496 33.5804 5.41595 34.0036 5.93503L34.3444 6.35302H28.999H23.6535L24.1137 5.81243C24.6613 5.16895 24.8114 4.82275 24.686 4.49249C24.549 4.13169 24.0943 3.87688 23.7426 3.96371C23.0916 4.12444 21.4981 6.25359 20.8281 7.85776C20.1261 9.53872 20.0556 10.5208 20.4073 13.7203L20.5371 14.9016L19.8868 15.6559C18.1566 17.6621 17.2388 19.8244 16.9699 22.5273C16.8171 24.0637 16.9393 24.8704 17.4079 25.4184C17.9868 26.0951 18.1594 26.1323 21.0026 26.1933L23.5994 26.249L23.7094 26.5834C23.906 27.1814 24.4087 27.8035 24.9253 28.0882L25.4308 28.3668H29H32.5692L33.0747 28.0882C33.5913 27.8035 34.094 27.1814 34.2906 26.5834L34.4006 26.249L36.9974 26.1933C39.8406 26.1323 40.0132 26.0951 40.5921 25.4184C41.0607 24.8704 41.1829 24.0637 41.0301 22.5273C40.7613 19.8249 39.8433 17.662 38.1143 15.657L37.4648 14.9038L37.6167 13.6101C37.8088 11.9743 37.8141 9.79353 37.6277 9.13958C37.047 7.10282 36.1024 5.61447 34.2279 3.78225C33.5026 3.07324 32.5267 2.21197 32.0593 1.86822C30.9281 1.03638 29.2366 -0.000445706 29.011 1.43742e-07C28.9115 0.000111606 28.5241 0.181572 28.1502 0.403048ZM35.6779 8.64468C36.1909 9.99349 36.2399 10.7412 35.9702 13.0965C35.6091 16.2475 34.6887 20.1998 33.4781 23.7969C32.6712 26.1944 32.5222 26.5296 32.2111 26.646C31.8463 26.7824 26.1537 26.7824 25.7889 26.646C25.4778 26.5296 25.3288 26.1944 24.5219 23.7969C23.0106 19.3062 21.867 13.7678 21.8628 10.9185C21.8617 10.1539 22.0756 9.1486 22.3898 8.44294L22.576 8.02495H29.0091H35.4422L35.6779 8.64468ZM27.9802 9.9061C26.8502 10.2713 25.8563 11.1573 25.4741 12.1401C25.179 12.8993 25.1537 14.1018 25.4179 14.8085C26.4661 17.6127 30.2749 18.1377 32.0775 15.7266C32.5532 15.0902 32.7636 14.4227 32.7657 13.5423C32.7694 12.0773 32.0096 10.8552 30.6785 10.185C30.2009 9.94444 29.8889 9.87478 29.17 9.84814C28.6714 9.82975 28.136 9.85583 27.9802 9.9061ZM6.81185 10.7079C5.52243 10.9574 4.26892 11.8897 3.67666 13.0394C3.12951 14.1018 3.05688 14.773 3.05472 18.7939C3.05291 22.3608 3.06073 22.4949 3.28768 22.7787C3.58579 23.1515 4.16467 23.1803 4.47989 22.838C4.68147 22.6192 4.69948 22.3362 4.7524 18.5745L4.80905 14.5455L5.12789 13.9068C5.30318 13.5556 5.6346 13.1153 5.86439 12.9284C6.65889 12.2819 6.87576 12.2605 12.6385 12.2605C15.5199 12.2605 17.9637 12.228 18.0692 12.1881C18.1748 12.1483 18.3261 11.9637 18.4054 11.778C18.5904 11.3451 18.4396 10.8879 18.0549 10.7154C17.7167 10.5638 7.59118 10.557 6.81185 10.7079ZM40.0264 10.7008C39.5297 10.8978 39.396 11.5065 39.754 11.9416L39.9705 12.2048L45.5076 12.2605L51.0447 12.3163L51.6069 12.601C51.9167 12.7579 52.3336 13.0979 52.5355 13.3583C53.2874 14.3279 53.2476 13.3745 53.2476 30.4492V45.9221L43.8148 45.9226C34.6745 45.9229 34.3708 45.9297 34.0211 46.1395C33.5378 46.4294 33.3793 46.7405 33.3084 47.5383L33.249 48.2071H29H24.751L24.6916 47.5383C24.6207 46.7405 24.4622 46.4294 23.9789 46.1395C23.6292 45.9297 23.3255 45.9229 14.1852 45.9226L4.7524 45.9221L4.74877 35.6397C4.74594 27.3434 4.71659 25.3202 4.59683 25.1653C4.22756 24.6869 3.4215 24.7389 3.18174 25.2567C3.08838 25.4582 3.0528 28.3443 3.0528 35.7179V45.9006L1.98364 45.9392C0.986538 45.9753 0.891587 45.9994 0.575575 46.2974C0.0264918 46.8153 -0.0371865 47.0978 0.0145946 48.7903C0.0528922 50.0457 0.105013 50.4198 0.300694 50.8461C0.65523 51.6186 1.36102 52.3086 2.17501 52.6784L2.88284 53H29H55.1172L55.825 52.6784C56.639 52.3086 57.3448 51.6186 57.6993 50.8461C57.895 50.4198 57.9471 50.0457 57.9854 48.7903C58.0372 47.0978 57.9735 46.8153 57.4244 46.2974C57.1084 45.9994 57.0135 45.9753 56.0164 45.9392L54.9472 45.9006L54.9453 30.5017C54.9436 17.7042 54.9164 14.978 54.784 14.3637C54.3644 12.4161 52.9946 11.0545 51.0993 10.7009C50.3564 10.5623 40.3762 10.5622 40.0264 10.7008ZM30.0838 11.7573C30.6252 12.0694 31.1528 12.9506 31.1528 13.5423C31.1528 14.0654 30.6494 14.9519 30.1716 15.27C29.8292 15.4979 29.6162 15.5487 29 15.5487C28.0523 15.5487 27.5391 15.2446 27.1285 14.4401C26.7714 13.7402 26.774 13.3405 27.1403 12.6173C27.6966 11.5191 29.0067 11.1363 30.0838 11.7573ZM7.47175 13.8937C6.99904 14.0468 6.79622 14.2211 6.60496 14.6383C6.40474 15.0749 6.39534 15.6946 6.39534 28.3886V41.6814L6.70954 41.9905L7.02362 42.2996H29H50.9764L51.2905 41.9905L51.6047 41.6816V39.1663C51.6047 36.6574 51.604 36.6505 51.3371 36.438C50.9904 36.1617 50.4747 36.1662 50.1883 36.4478C49.9785 36.6543 49.9617 36.8193 49.9617 38.6771V40.6834H28.9995H8.03726L8.06616 28.116L8.09494 15.5487L13.1877 15.5197C18.2332 15.4909 18.2829 15.4884 18.5415 15.2494C19.0031 14.8228 18.8396 14.1562 18.2214 13.9442C17.8623 13.8211 7.84113 13.774 7.47175 13.8937ZM39.9228 13.9779C39.3589 14.2229 39.2435 14.8412 39.6852 15.2494C39.9435 15.4881 39.9964 15.4908 44.9256 15.5196L49.9051 15.5487L49.9617 24.824C50.0138 33.3654 50.0337 34.1143 50.2112 34.2889C50.4836 34.5569 51.0558 34.5294 51.3561 34.2341L51.6047 33.9894V24.5424C51.6047 15.6644 51.5923 15.0686 51.3996 14.648C51.0318 13.8458 51.2822 13.8796 45.4861 13.851C41.2761 13.8301 40.2065 13.8545 39.9228 13.9779ZM21.2895 18.6074C21.6378 20.1272 22.3971 22.8474 22.7728 23.9216L22.9825 24.5214H20.8964C18.3869 24.5214 18.5078 24.6036 18.6121 22.9671C18.7307 21.1051 19.3292 19.3176 20.3299 17.8369C20.6255 17.3994 20.8858 17.0594 20.9082 17.0814C20.9305 17.1034 21.1021 17.7902 21.2895 18.6074ZM37.9545 18.2858C38.804 19.6661 39.4242 21.8364 39.4242 23.4287C39.4242 24.5619 39.5104 24.5214 37.1024 24.5214H35.0153L35.1855 24.0477C35.622 22.8332 36.4734 19.7353 36.8758 17.8969L37.0694 17.0129L37.287 17.2839C37.4067 17.433 37.707 17.8839 37.9545 18.2858ZM27.8162 30.4589C27.2016 31.0372 27.0738 31.2195 27.0738 31.5178C27.0738 32.3363 27.9671 32.596 28.6251 31.9687L28.9974 31.6137L29.2657 31.8616C29.4132 31.998 29.6815 32.3961 29.8618 32.7461C30.5167 34.0174 30.3171 35.7227 29.3946 36.738L29 37.1723L28.6073 36.7402C28.2165 36.3102 27.9839 35.8137 27.7546 34.9203C27.5999 34.3171 27.378 34.1071 26.8958 34.1071C26.42 34.1071 26.0535 34.4353 26.0554 34.8595C26.0573 35.3073 26.3289 36.2385 26.6361 36.8512C26.9723 37.5218 28.0832 38.7055 28.6051 38.9491C28.9725 39.1205 29.0275 39.1205 29.3949 38.9491C29.925 38.7016 31.0508 37.5007 31.3607 36.8521C32.4497 34.5733 31.9788 32.0663 30.1529 30.4204C29.5272 29.8564 29.3576 29.7601 28.9896 29.7601C28.6153 29.7601 28.461 29.8521 27.8162 30.4589ZM23.1081 48.2543C23.1081 48.8091 23.1569 48.9716 23.4143 49.2726C23.9761 49.9293 24.0222 49.9348 29 49.9348C33.9778 49.9348 34.0239 49.9293 34.5857 49.2726C34.8431 48.9716 34.8919 48.8091 34.8919 48.2543V47.5941H45.6092H56.3264L56.2883 48.8572C56.2526 50.0407 56.2303 50.1459 55.9327 50.5292C55.7581 50.7541 55.4522 51.0259 55.2529 51.1331C54.9108 51.3171 53.4381 51.3281 29 51.3281C4.56193 51.3281 3.08917 51.3171 2.7471 51.1331C2.54779 51.0259 2.24186 50.7541 2.06726 50.5292C1.76971 50.1459 1.74739 50.0407 1.7117 48.8572L1.67363 47.5941H12.3908H23.1081V48.2543Z" fill="#000041"/>
</svg>
