<svg width="58" height="52" viewBox="0 0 58 52" fill="none" xmlns="http://www.w3.org/2000/svg">
<path fill-rule="evenodd" clip-rule="evenodd" d="M13.0853 0.15138C11.6206 0.541087 10.5791 1.92037 10.5791 3.47068C10.5791 4.49221 10.7737 4.86835 12.8007 7.76497C14.8983 10.7623 14.7996 10.6057 14.4562 10.39C14.3081 10.2969 12.655 9.32582 10.7827 8.23194C7.21116 6.14547 6.94427 6.0368 6.49173 6.48404C6.20952 6.76294 6.20963 7.36079 6.49195 7.62187C6.60497 7.72639 8.4082 8.80748 10.499 10.0241C12.5898 11.2409 14.3488 12.2827 14.4082 12.3394C14.4738 12.402 12.8015 12.4424 10.1421 12.4424C5.90302 12.4424 5.76186 12.4493 5.56147 12.6681C5.27823 12.9775 5.29808 13.5202 5.60367 13.8224C5.85071 14.0667 5.89042 14.0689 10.9328 14.1245L16.0131 14.1806L14.3122 16.6478C12.9512 18.6219 12.6111 19.1907 12.6104 19.494C12.6089 20.1685 13.3658 20.524 13.8931 20.0963C14.0261 19.9883 15.0163 18.6132 16.0935 17.0403L18.0519 14.1806L20.8853 14.1557L23.7188 14.1309L28.2011 20.7004C30.6663 24.3138 32.8187 27.416 32.9841 27.5943C33.3629 28.0025 33.7867 28.0157 34.1755 27.6315C34.3828 27.4266 34.4529 27.2568 34.4205 27.0383C34.3954 26.8698 32.2949 23.6957 29.7526 19.9847L25.1301 13.2375L27.8713 9.33535C29.379 7.18921 30.7078 5.25458 30.8242 5.03635C31.6026 3.57699 31.1696 1.72614 29.8101 0.701459C28.8645 -0.01134 28.9246 -0.00662877 20.8896 0.00167003C15.3983 0.00738947 13.4888 0.0440568 13.0853 0.15138ZM28.5107 1.8966C29.32 2.25961 29.7127 3.15947 29.4194 3.97892C29.3318 4.22362 27.9937 6.22801 26.4459 8.43313L23.6317 12.4424H20.8857H18.1396L15.2772 8.35317C13.7027 6.1042 12.3688 4.1061 12.3128 3.91309C12.0925 3.15398 12.5043 2.27756 13.2535 1.91107C13.7248 1.68049 13.8547 1.67657 20.8819 1.67892C27.6862 1.68117 28.054 1.69159 28.5107 1.8966ZM48.513 8.12944C47.9201 8.59417 47.3457 9.07898 47.2365 9.20683C46.7995 9.71821 47.1687 10.5359 47.8366 10.5359C48.0026 10.5359 48.3504 10.3841 48.6095 10.1988L49.0804 9.86154V13.8799V17.8984L49.343 18.1423C49.6672 18.4432 50.1042 18.4547 50.4579 18.1718L50.7258 17.9576L50.7583 13.9663C50.7762 11.7712 50.8199 9.97514 50.8554 9.97514C50.8909 9.97514 51.0717 10.1013 51.2571 10.2555C51.8545 10.7523 52.5494 10.5817 52.7644 9.88553C52.8826 9.50244 52.6164 9.18339 51.3398 8.17834C50.5513 7.5575 50.1097 7.28375 49.8973 7.28409C49.6875 7.28443 49.2515 7.55066 48.513 8.12944ZM38.8109 11.9045C38.6861 11.975 38.0861 12.4301 37.4776 12.9159C36.4293 13.7528 36.3712 13.8215 36.3712 14.2248C36.3712 15.0214 37.0871 15.2676 37.8714 14.7409L38.2895 14.4602L38.3232 18.4302C38.3549 22.1505 38.3707 22.4149 38.5732 22.636C38.8553 22.9439 39.4697 22.9499 39.7755 22.6476C39.9939 22.4317 40.0024 22.2738 40.0024 18.4422C40.0024 16.2525 40.0359 14.461 40.0769 14.461C40.1177 14.461 40.3186 14.5871 40.5232 14.7413C41.2425 15.2836 42.045 15.0108 42.045 14.2241C42.045 13.8544 41.8724 13.6596 40.7968 12.8158C39.3547 11.6846 39.2695 11.6454 38.8109 11.9045ZM11.0981 21.5577C10.8647 21.6883 2.35353 33.9847 1.45799 35.4851C0.930333 36.369 0.474503 37.5241 0.217483 38.6284C-0.0706296 39.866 -0.0727874 42.1197 0.212829 43.3385C1.19552 47.5311 4.51012 50.8076 8.74012 51.7678C9.58846 51.9603 10.3844 51.9738 20.8819 51.9738C31.4169 51.9738 32.1724 51.9609 33.0237 51.766C34.1745 51.5025 35.609 50.9213 36.5348 50.3435L37.2545 49.8943L37.9193 50.2833C39.3951 51.147 41.3381 51.7397 43.3664 51.9448C45.6708 52.1779 48.431 51.6617 50.5556 50.6003C53.7689 48.9953 56.2105 46.2202 57.3443 42.8847C58.2186 40.3127 58.2186 37.0562 57.3443 34.4843C55.9782 30.4652 52.7379 27.3117 48.6265 25.9994C44.0088 24.5257 38.8601 25.7001 35.3033 29.0385C32.3086 31.8493 30.7438 35.9377 31.1449 39.9032C31.4666 43.0835 32.6561 45.6146 34.93 47.9573L35.821 48.8752L34.8663 49.3319C34.3412 49.5831 33.4821 49.9018 32.957 50.04L32.0025 50.2916H20.7684H9.53444L8.51317 49.9758C5.83698 49.1483 3.86523 47.5131 2.67363 45.1329C1.87114 43.5298 1.71399 42.8588 1.71523 41.0396C1.71637 39.3257 1.93163 38.3418 2.61055 36.9462C2.82059 36.5145 4.25412 34.3192 5.79624 32.0679C7.33825 29.8166 9.43584 26.7519 10.4573 25.2577C11.5854 23.6075 12.3146 22.4345 12.3146 22.2703C12.3146 21.6908 11.6039 21.2745 11.0981 21.5577ZM47.4017 27.4003C49.3972 27.9049 51.1068 28.8339 52.586 30.2175C56.4655 33.8462 57.4351 39.3328 55.0178 43.978C54.3771 45.209 53.6545 46.1521 52.586 47.1515C51.115 48.5274 49.4349 49.4475 47.435 49.9724C46.4394 50.2337 46.0846 50.2703 44.5414 50.2703C43.0093 50.2703 42.6406 50.2328 41.6812 49.9803C37.9668 49.0021 34.9863 46.4024 33.5876 42.9206C33.0127 41.4897 32.8188 40.421 32.8188 38.6845C32.8188 36.948 33.0127 35.8793 33.5876 34.4484C34.6965 31.6881 36.8768 29.3938 39.5816 28.1411C40.5767 27.6802 41.8067 27.3089 42.9057 27.1375C44.0338 26.9617 46.1584 27.0858 47.4017 27.4003ZM43.4634 28.94C39.9104 29.3027 36.7382 31.6614 35.382 34.9488C34.862 36.2091 34.6555 37.2713 34.6555 38.6845C34.6555 41.2573 35.5677 43.5479 37.3295 45.3991C40.1322 48.344 44.3822 49.2727 48.2673 47.7895C50.4579 46.9531 52.5947 44.9171 53.6143 42.6947C54.2963 41.2085 54.588 39.3927 54.4131 37.7251C54.2319 35.999 53.441 33.8694 52.8889 33.6207C52.522 33.4555 52.0178 33.6351 51.806 34.0067C51.6547 34.2718 51.659 34.3552 51.8491 34.8388C52.4863 36.4602 52.6089 36.8779 52.7274 37.8307C52.9457 39.5859 52.4931 41.5065 51.4995 43.0416C50.3559 44.8084 48.4074 46.1613 46.2952 46.6548C45.3304 46.8803 43.4745 46.8281 42.4486 46.5466C39.5711 45.757 37.3329 43.5409 36.5872 40.7429C36.2665 39.5398 36.2665 37.8292 36.5872 36.6261C37.3279 33.8467 39.6107 31.575 42.3919 30.8494C44.1284 30.3964 45.7001 30.4523 47.3049 31.0244C48.1807 31.3367 48.307 31.4033 49.4388 32.1515C50.0771 32.5734 50.2493 32.639 50.549 32.574C51.0172 32.4724 51.2804 32.072 51.1789 31.6157C51.0181 30.8924 48.7814 29.608 46.9244 29.1728C45.7288 28.8926 44.6436 28.8197 43.4634 28.94ZM44.0461 32.4125C43.7892 32.6121 43.7471 32.73 43.7471 33.2484V33.852L43.3216 33.9177C42.3789 34.0633 42.0172 34.2246 41.4812 34.7381C41.072 35.1303 40.8863 35.419 40.7511 35.8732C40.5266 36.6274 40.5257 36.8148 40.7429 37.5374C40.9447 38.2091 41.331 38.7009 41.9788 39.1104C42.4132 39.3851 42.5536 39.4074 44.2253 39.4676C45.7895 39.5239 46.0472 39.5602 46.3246 39.7638C46.7443 40.0716 46.9186 40.7263 46.6895 41.1347C46.3621 41.7182 45.9254 41.8242 43.8498 41.8244C42.1069 41.8246 41.9513 41.8414 41.7599 42.0503C41.4818 42.3541 41.4963 42.9023 41.7903 43.1929C41.976 43.3762 42.2145 43.439 42.8873 43.4818L43.7471 43.5363V44.1302C43.7471 44.6382 43.7903 44.7578 44.0461 44.9565C44.432 45.2566 44.6839 45.25 45.0603 44.93C45.2964 44.7294 45.3776 44.5408 45.4213 44.0914C45.4762 43.5258 45.4877 43.51 45.8889 43.4437C47.0535 43.2513 47.7946 42.7245 48.246 41.7685C48.7567 40.6872 48.4711 39.3879 47.5463 38.5856C46.8593 37.9893 46.5227 37.8996 44.9706 37.8988C43.2629 37.8981 42.7899 37.7845 42.4934 37.3039C42.372 37.1072 42.2727 36.8453 42.2727 36.7219C42.2727 36.2953 42.6905 35.7889 43.1455 35.6641C43.3827 35.5989 44.3732 35.5454 45.3465 35.5451C46.9753 35.5444 47.1326 35.5265 47.3229 35.3187C47.6001 35.0159 47.5865 34.4667 47.2945 34.1782C47.1168 34.0026 46.8664 33.9323 46.2675 33.8899L45.4753 33.834L45.4202 33.2659C45.3776 32.8287 45.2948 32.6383 45.0603 32.439C44.6839 32.119 44.432 32.1124 44.0461 32.4125Z" fill="#000041"/>
</svg>
