<svg width="51" height="57" viewBox="0 0 51 57" fill="none" xmlns="http://www.w3.org/2000/svg">
<path fill-rule="evenodd" clip-rule="evenodd" d="M3.11013 0.178326C1.93695 0.491759 0.855782 1.43284 0.303671 2.62119L0.0465555 3.17443L0.016699 17.81C-0.0156077 33.6383 -0.0437923 32.8374 0.553103 33.0268C0.881406 33.131 1.38673 32.8946 1.53601 32.5668C1.6268 32.3678 1.66189 29.3377 1.66189 21.7145V11.1383H23.6639H45.6659V25.4547C45.6659 41.2562 45.7142 40.1885 44.9639 40.971C44.5068 41.4479 43.9605 41.7269 43.2859 41.828L42.7493 41.9085L35.6574 34.8493L28.5656 27.7902L24.388 25.5697C20.4543 23.4788 20.1747 23.3487 19.5977 23.342C18.8149 23.3328 18.2061 23.6412 17.7596 24.2732C17.4676 24.6865 17.4258 24.8402 17.4288 25.4885L17.4324 26.2308L19.6569 30.4381L21.8815 34.6455L25.4185 38.1889C27.3638 40.1379 28.9555 41.7668 28.9555 41.8087C28.9555 41.8505 23.2532 41.8711 16.2835 41.8546L3.61144 41.8245L3.16438 41.5851C2.56927 41.2663 2.12032 40.8081 1.87122 40.2651C1.69988 39.8917 1.66635 39.5255 1.66434 38.004C1.66156 35.946 1.56998 35.6023 0.990914 35.4751C0.575828 35.3838 0.135899 35.6369 0.0390897 36.0224C0.00243827 36.1685 -0.0108135 37.1828 0.0095732 38.2766C0.0460018 40.2326 0.0522343 40.2769 0.390452 40.9891C0.806318 41.8648 1.58703 42.6633 2.4338 43.0791L3.05442 43.3838L16.894 43.4395L30.7335 43.4952L34.3881 47.143C36.8418 49.5922 38.1188 50.7908 38.2743 50.7908C38.6996 50.7908 39.0931 50.3729 39.0931 49.9216C39.0931 49.531 38.7994 49.2202 32.0477 42.4666L25.0023 35.419L27.2305 33.1912L29.4586 30.9635L39.1605 40.6822C45.8265 47.3599 48.9272 50.5404 49.0698 50.8465C49.1886 51.1016 49.2961 51.6339 49.3215 52.0917C49.3587 52.7628 49.322 52.9868 49.0941 53.4846C48.7485 54.2394 48.2223 54.7647 47.4645 55.1115C46.9558 55.3444 46.7477 55.3776 46.0713 55.3337C45.6261 55.3048 45.1043 55.1947 44.8861 55.0835C44.6716 54.9744 43.7873 54.1894 42.921 53.3392C41.578 52.0211 41.2948 51.7933 40.9994 51.7933C40.5441 51.7933 40.2072 52.1373 40.2072 52.6022C40.2072 52.922 40.404 53.1617 41.8504 54.6025C43.1464 55.8936 43.6302 56.3015 44.1405 56.5335C46.9302 57.802 50.0966 56.3797 50.8403 53.5242C51.1642 52.2806 50.9878 50.8489 50.3802 49.7884C50.2223 49.5127 48.7708 47.9573 47.1546 46.332L44.2161 43.3769L44.8815 43.0609C45.703 42.6709 46.5715 41.7794 46.9809 40.9059L47.2812 40.2651L47.3111 21.9982C47.3405 4.0176 47.3375 3.71998 47.1186 3.00735C46.8435 2.11138 46.2381 1.29929 45.4391 0.754625C44.3493 0.0118093 44.2249 0 37.4493 0H31.3962L31.1228 0.273448C30.9725 0.423816 30.8494 0.676654 30.8494 0.835375C30.8494 0.994097 30.9725 1.24694 31.1228 1.3973L31.3962 1.67075L37.5006 1.67187L43.6049 1.67298L44.162 1.93551C44.8257 2.2485 45.1283 2.55647 45.4337 3.23012C45.6437 3.69325 45.6612 3.95322 45.6635 6.65516L45.6659 9.57897H23.6639H1.66189L1.66256 6.71085C1.66289 5.13333 1.71191 3.6673 1.77162 3.45289C1.93249 2.87503 2.51869 2.23357 3.15792 1.93595L3.72284 1.67298L15.7895 1.67187C27.9429 1.67075 28.1765 1.66373 28.4247 1.29204C28.5961 1.03531 28.5096 0.453887 28.266 0.227111C28.0237 0.00133677 27.9508 -2.33858e-06 15.8725 0.00734897C5.55352 0.0135864 3.63049 0.0393198 3.11013 0.178326ZM6.60282 4.13032C6.40987 4.1869 6.09649 4.41011 5.90655 4.62653C5.05922 5.59133 5.7869 7.12854 7.09087 7.12854C7.55564 7.12854 8.13527 6.77077 8.36532 6.34195C9.01758 5.12597 7.91726 3.74537 6.60282 4.13032ZM11.1542 4.22789C10.2916 4.6262 10.0069 5.76966 10.5869 6.50691C11.2808 7.38895 12.5421 7.2975 13.1369 6.32201C13.4102 5.87402 13.4191 5.40878 13.164 4.90878C12.7661 4.12854 11.9605 3.85565 11.1542 4.22789ZM16.1045 4.12431C15.1954 4.39664 14.7613 5.51659 15.2524 6.32201C16.2748 7.99866 18.7323 6.75173 17.9391 4.95879C17.7612 4.5567 17.6122 4.40276 17.2352 4.23168C16.7123 3.99443 16.5799 3.98185 16.1045 4.12431ZM16.4866 14.7733C16.1944 15.1447 16.193 15.4845 16.4828 15.7954L16.7099 16.0392H23.6601H30.6104L30.8412 15.7457C30.9682 15.5843 31.0722 15.3656 31.0722 15.2595C31.0722 15.1535 30.9682 14.9347 30.8412 14.7733L30.6104 14.4798H23.6639H16.7174L16.4866 14.7733ZM6.00659 18.9352C5.88282 19.0589 5.78379 19.3064 5.78379 19.4921C5.78379 19.6778 5.88282 19.9253 6.00659 20.049C6.2275 20.2699 6.3779 20.2718 23.6639 20.2718C40.9499 20.2718 41.1003 20.2699 41.3212 20.049C41.6079 19.7623 41.6061 19.2665 41.3169 18.9562L41.0897 18.7124H23.6596C6.3779 18.7124 6.2275 18.7143 6.00659 18.9352ZM6.26449 22.8344C5.74903 23.042 5.62727 23.7615 6.04158 24.1508C6.29691 24.3905 6.34114 24.393 10.4783 24.393H14.6571L14.8994 24.1352C15.2421 23.7704 15.2194 23.245 14.8481 22.9531C14.563 22.7289 14.4383 22.7224 10.5312 22.7292C8.31842 22.7331 6.3984 22.7805 6.26449 22.8344ZM21.8549 26.1157C23.0031 26.7263 23.9424 27.2534 23.9424 27.287C23.9424 27.3206 23.3467 27.9421 22.6188 28.6681L21.2951 29.988L20.2038 27.8917C19.6036 26.7388 19.089 25.6725 19.0603 25.5223C19.003 25.2229 19.3024 24.9175 19.5983 24.9735C19.6914 24.9912 20.7069 25.5051 21.8549 26.1157ZM27.8951 29.4224C28.1131 29.6274 28.0884 29.6576 25.8938 31.8538C23.3072 34.4424 23.6016 34.3756 22.6613 32.5871L22.1043 31.5276L23.8229 29.8049L25.5416 28.0821L26.6079 28.6485C27.1945 28.9599 27.7738 29.3082 27.8951 29.4224Z" fill="#000041"/>
</svg>
