<svg width="58" height="55" viewBox="0 0 58 55" fill="none" xmlns="http://www.w3.org/2000/svg">
<path fill-rule="evenodd" clip-rule="evenodd" d="M9.72146 0.31739C9.04131 0.672617 8.46291 1.47659 8.33679 2.24227C8.29792 2.47773 8.26562 4.85648 8.26494 7.52841L8.26369 12.3864L6.53555 12.3891C5.58501 12.3907 4.57792 12.4443 4.29745 12.5084C3.57435 12.6735 3.0006 13.0906 2.6322 13.7191L2.31433 14.2614L2.25767 31.5327L2.20101 48.804L1.66568 48.8808C0.978498 48.9793 0.524193 49.3086 0.227632 49.9231C-0.549072 51.5318 0.751289 54.0065 2.77158 54.7644C3.36663 54.9877 3.62602 55 7.74978 55H12.1002L12.335 54.7006C12.63 54.3247 12.6313 54.0862 12.3409 53.7159L12.1119 53.424L7.88962 53.3882L3.6675 53.3523L3.10418 53.0634C2.21279 52.6063 1.437 51.2248 1.77231 50.6917C1.87544 50.5278 4.36284 50.5114 29.0015 50.5114C53.6401 50.5114 56.1275 50.5278 56.2307 50.6917C56.5661 51.2249 55.7901 52.6064 54.8985 53.0634L54.3349 53.3523L34.7464 53.4091C15.5208 53.4649 15.155 53.47 14.9971 53.6865C14.7678 54.0011 14.7985 54.5075 15.063 54.7727C15.2879 54.9983 15.4407 55 34.9465 55C54.4309 55 54.609 54.998 55.2192 54.7691C56.4873 54.2932 57.3785 53.3528 57.7845 52.0619C58.0746 51.1398 58.072 50.5376 57.7753 49.9231C57.4699 49.2905 56.9906 48.9547 56.2974 48.888L55.7453 48.8348V31.6463V14.4577L55.4288 13.8501C55.2314 13.4712 54.9292 13.1134 54.6261 12.8997L54.1401 12.5568L51.945 12.5217L49.7498 12.4866L49.7162 7.23761L49.6826 1.98864L49.3306 1.36364C49.0859 0.929091 48.8124 0.634773 48.4331 0.397727L47.8877 0.0568182L43.6613 0.0244349C39.5399 -0.0070424 39.4292 -0.00215604 39.2044 0.223299C38.9364 0.492049 38.904 0.997162 39.1344 1.31353C39.2869 1.52273 39.5019 1.53705 43.325 1.59091L47.3548 1.64773L47.6688 1.96261L47.9828 2.27739L48.0174 4.7183L48.0519 7.15909H29.0015H9.95105L9.98561 4.7183L10.0202 2.27739L10.3344 1.96261L10.6485 1.64773L23.4355 1.61738C36.0508 1.5875 36.225 1.58409 36.4271 1.36022C36.6902 1.06863 36.6894 0.52125 36.4254 0.22875C36.2207 0.00204551 36.1027 0 23.2741 0H10.3293L9.72146 0.31739ZM12.7399 3.65398C11.9167 4.10546 12.1787 5.22727 13.1073 5.22727C13.4654 5.22727 13.9298 4.80454 13.9298 4.47864C13.9298 4.14261 13.6517 3.7542 13.3306 3.64204C13.143 3.57636 12.9842 3.52432 12.978 3.52614C12.9716 3.52807 12.8645 3.58557 12.7399 3.65398ZM16.5928 3.65398C16.0403 3.95694 15.9358 4.44091 16.3178 4.92784C16.9007 5.67102 18.0552 4.93534 17.7123 4.0392C17.6456 3.86477 17.1045 3.51875 16.9101 3.52614C16.8602 3.52807 16.7175 3.58557 16.5928 3.65398ZM20.4904 3.65046C20.2082 3.75318 19.9358 4.16011 19.9358 4.47864C19.9358 4.56102 20.0415 4.76318 20.1707 4.92784C20.6362 5.52136 21.6356 5.17705 21.6356 4.42295C21.6356 3.8292 21.0621 3.44228 20.4904 3.65046ZM48.0123 25.6917L47.9828 42.5197L47.6648 42.794L47.3468 43.0682H43.4589C39.6971 43.0682 39.5612 43.0758 39.2724 43.3037C38.8866 43.608 38.8623 44.2051 39.2218 44.541C39.4615 44.765 39.6012 44.7727 43.4299 44.7727C46.1074 44.7727 47.532 44.73 47.8289 44.6408C48.3972 44.4701 49.114 43.8502 49.4315 43.2549L49.6826 42.7841L49.7131 28.4943L49.7436 14.2045H51.6635C53.4935 14.2045 53.5942 14.2163 53.8148 14.4536C54.0459 14.7025 54.0462 14.7226 54.0175 31.7548L53.9888 48.8068L28.9732 48.8354L3.95749 48.8641V31.8277C3.95749 22.4577 3.98922 14.7085 4.02786 14.6074C4.18674 14.1923 4.67232 14.0909 6.50155 14.0909H8.26369V16.2447C8.26369 18.5381 8.32455 18.8651 8.79143 19.0784C9.17978 19.2558 9.32427 19.2377 9.66491 18.969L9.96351 18.7335V13.7985V8.86364H29.0026H48.0417L48.0123 25.6917ZM13.3654 12.5323C12.8054 12.8165 12.7999 12.8734 12.7982 18.5458C12.7971 22.1966 12.8359 23.9393 12.9223 24.1299C13.0452 24.4 13.4502 24.6591 13.7498 24.6591C13.832 24.6591 14.0336 24.5531 14.1978 24.4235L14.4964 24.1881V20.1555C14.4964 17.9239 14.54 16.15 14.5942 16.1835C14.6479 16.2168 15.9489 18.0784 17.4853 20.3204C19.2945 22.9603 20.38 24.4429 20.5659 24.5279C21.0185 24.7346 21.2877 24.6845 21.6443 24.3269L21.9756 23.9948V18.5408C21.9756 15.541 21.9425 13.0002 21.9019 12.8944C21.7911 12.6048 21.1923 12.3882 20.8565 12.5163C20.2813 12.7355 20.2832 12.7203 20.2794 17.2047L20.2758 21.398L17.2614 16.9986C15.2011 13.9918 14.1586 12.5657 13.9677 12.4928C13.6325 12.3651 13.7044 12.3603 13.3654 12.5323ZM24.7406 12.5486C24.5473 12.633 24.3561 12.7885 24.3157 12.8944C24.2751 13.0002 24.242 15.565 24.242 18.594V24.1012L24.5202 24.3801L24.7983 24.6591H27.3017H29.805L30.0831 24.3801C30.2361 24.2267 30.3613 23.9687 30.3613 23.8068C30.3613 23.6449 30.2361 23.3869 30.0831 23.2335C29.8096 22.9591 29.7732 22.9545 27.8734 22.9545H25.9418V21.2014V19.4482L27.6388 19.4116C29.209 19.3777 29.3544 19.3564 29.5842 19.1257C29.9197 18.7886 29.915 18.2134 29.5744 17.9368C29.3494 17.7541 29.1 17.7273 27.6291 17.7273H25.9418V15.9091V14.0909H27.9167H29.8916L30.1264 13.7915C30.5292 13.2782 30.3721 12.7417 29.7497 12.5044C29.2735 12.3228 25.175 12.359 24.7406 12.5486ZM32.5438 12.4758C32.2492 12.5219 31.9478 12.9043 31.9478 13.2319C31.9478 13.608 33.9914 23.8856 34.1105 24.1087C34.4186 24.6861 35.4247 24.7877 35.8853 24.2881C36.0352 24.1253 36.5379 22.6655 37.2836 20.2273C37.9237 18.1335 38.4774 16.3841 38.5138 16.3396C38.5502 16.295 39.0824 17.9058 39.6965 19.9191C40.3107 21.9324 40.8797 23.7424 40.9611 23.9414C41.2592 24.6704 42.2723 24.8531 42.8137 24.2753C43.1778 23.8866 45.2548 13.3878 45.0531 12.9556C44.7356 12.2752 43.8508 12.2911 43.5743 12.9823C43.4928 13.1858 43.0798 15.1047 42.6565 17.2465C42.2331 19.3883 41.8731 21.1269 41.8564 21.1101C41.8399 21.0933 41.2613 19.2405 40.5708 16.9926C39.7748 14.4014 39.2344 12.8245 39.0942 12.6839C38.7992 12.3882 38.2012 12.3927 37.9592 12.6925C37.8569 12.8192 37.4278 14.0422 37.0058 15.4102C36.5838 16.7784 36.0044 18.6392 35.7184 19.5455L35.1982 21.1932L34.3876 17.0781C33.4754 12.4473 33.4312 12.3367 32.5438 12.4758ZM8.60649 21.7017C8.48343 21.8251 8.35413 22.0424 8.31922 22.1847C8.28421 22.3268 8.27015 27.0199 8.28795 32.6136L8.32036 42.7841L8.57148 43.2549C8.889 43.8502 9.60576 44.4701 10.1741 44.6408C10.7697 44.8198 35.9343 44.8307 36.267 44.6522C36.8105 44.3604 36.7593 43.4592 36.1844 43.1966C35.9809 43.1036 32.4205 43.0682 23.2798 43.0682H10.6561L10.3382 42.794L10.0202 42.5198L9.99003 32.2595L9.95989 21.9994L9.71534 21.7384C9.41255 21.4152 8.90883 21.3985 8.60649 21.7017ZM13.819 28.435C13.5174 28.5885 13.2187 28.8544 13.0825 29.0909C12.8642 29.4695 12.8516 29.7098 12.8214 34.0909C12.7895 38.6878 12.7897 38.6937 13.048 39.2036C13.1901 39.4843 13.4798 39.8295 13.6916 39.9707L14.0766 40.2273H20.1338C26.8885 40.2273 26.7092 40.2469 27.2519 39.446L27.5283 39.0382V34.2518C27.5283 29.4752 27.5277 29.4647 27.2733 29.0898C27.133 28.8832 26.8744 28.6072 26.6985 28.4764C26.3847 28.2431 26.265 28.2381 20.3525 28.2077L14.3264 28.1768L13.819 28.435ZM31.608 28.3094C31.4522 28.3718 31.2051 28.5348 31.0588 28.6716C30.4717 29.2214 30.4747 29.1932 30.4747 34.2957C30.4747 39.0469 30.4752 39.0581 30.7296 39.4319C30.8699 39.6378 31.1631 39.902 31.3812 40.0189C31.7567 40.2199 32.1054 40.2296 37.9173 40.2009C43.9577 40.1709 44.0619 40.1666 44.3766 39.9312C44.5526 39.7998 44.7985 39.5185 44.9231 39.3062C45.1399 38.9372 45.1498 38.7161 45.1498 34.2045C45.1498 29.6777 45.1406 29.4727 44.9205 29.0909C44.7848 28.8553 44.4862 28.5889 44.1882 28.4375L43.6852 28.1818L37.7882 28.189C34.1526 28.1934 31.7825 28.2397 31.608 28.3094ZM25.8285 34.2045V38.5227H20.1624H14.4964V34.2803C14.4964 31.9469 14.5304 30.0037 14.572 29.9622C14.6134 29.9205 17.1632 29.8864 20.238 29.8864H25.8285V34.2045ZM43.4796 34.233L43.5093 38.5227H37.8419H32.1745V34.2035V29.8842L37.8122 29.9137L43.45 29.9432L43.4796 34.233Z" fill="#000041"/>
</svg>
