<svg width="60" height="70" viewBox="0 0 60 70" fill="none" xmlns="http://www.w3.org/2000/svg">
<path fill-rule="evenodd" clip-rule="evenodd" d="M0 24.8867C0 22.8712 1.65256 21.2373 3.6911 21.2373H21.2827C23.3213 21.2373 24.9738 22.8712 24.9738 24.8867C24.9738 26.9023 23.3213 28.5362 21.2827 28.5362H21.0471V53.7716C21.0471 58.446 17.2146 62.2352 12.4869 62.2352C7.75924 62.2352 3.9267 58.446 3.9267 53.7716V28.5362H3.6911C1.65256 28.5362 0 26.9023 0 24.8867ZM3.6911 23.4114C2.86701 23.4114 2.19895 24.0719 2.19895 24.8867C2.19895 25.7015 2.86701 26.362 3.6911 26.362H21.2827C22.1068 26.362 22.7749 25.7015 22.7749 24.8867C22.7749 24.0719 22.1068 23.4114 21.2827 23.4114H3.6911ZM6.12565 53.7716C6.12565 57.2452 8.97369 60.0611 12.4869 60.0611C16.0001 60.0611 18.8482 57.2452 18.8482 53.7716V28.5362H6.12565V53.7716Z" fill="#00AAFF"/>
<path d="M13.8468 20.2493C16.0147 20.3055 17.8192 18.5787 17.8772 16.3924C17.9351 14.2061 16.2247 12.3881 14.0568 12.3319C11.8889 12.2757 10.0844 14.0025 10.0265 16.1888C9.96848 18.3752 11.6789 20.1931 13.8468 20.2493Z" fill="#04E061"/>
<path d="M12.4696 8.71778C13.7704 8.75151 14.8534 7.70155 14.8886 6.37262C14.9239 5.04368 13.898 3.93901 12.5973 3.90529C11.2965 3.87157 10.2135 4.92157 10.1782 6.2505C10.143 7.57943 11.1689 8.68406 12.4696 8.71778Z" fill="#FF4053"/>
<path d="M8.928 2.95011C9.7518 2.97147 10.4371 2.32849 10.4587 1.51398C10.4803 0.699475 9.83002 0.0218735 9.00623 0.000516992C8.18242 -0.0208397 7.49708 0.622136 7.47548 1.43665C7.45388 2.25115 8.1042 2.92876 8.928 2.95011Z" fill="#965EEB"/>
<path d="M7.14551 14.0196C8.92317 14.0657 10.403 12.6435 10.4507 10.843C10.4985 9.0425 9.09608 7.54555 7.31842 7.49946C5.54071 7.45338 4.0609 8.87561 4.01315 10.6761C3.9654 12.4766 5.3678 13.9735 7.14551 14.0196Z" fill="#00AAFF"/>
<path d="M11.466 42.1098C11.466 42.4958 11.1495 42.8087 10.7592 42.8087C10.3688 42.8087 10.0524 42.4958 10.0524 42.1098C10.0524 41.7239 10.3688 41.411 10.7592 41.411C11.1495 41.411 11.466 41.7239 11.466 42.1098Z" fill="white"/>
<path d="M16.0209 39.3145C16.0209 40.3009 15.2122 41.1004 14.2147 41.1004C13.2171 41.1004 12.4084 40.3009 12.4084 39.3145C12.4084 38.3282 13.2171 37.5286 14.2147 37.5286C15.2122 37.5286 16.0209 38.3282 16.0209 39.3145Z" fill="white"/>
<path d="M3.93058 68.8986L3.9267 68.3287H4.02938C4.10687 68.3287 4.1721 68.3115 4.22505 68.2771C4.27801 68.2427 4.32192 68.1853 4.35679 68.105C4.39167 68.0234 4.41879 67.9138 4.43816 67.7761C4.45753 67.6384 4.4711 67.4669 4.47885 67.2617L4.53115 65.9614H6.70099V68.8986H6.02291V66.5293H5.16854L5.12205 67.4759C5.11042 67.7206 5.08265 67.9329 5.03874 68.1126C4.99612 68.2911 4.93541 68.4384 4.85663 68.5544C4.77914 68.6704 4.68162 68.7571 4.56409 68.8144C4.44656 68.8705 4.30771 68.8986 4.14756 68.8986H3.93058Z" fill="black"/>
<path d="M8.48168 68.9578C8.29311 68.9578 8.12327 68.9247 7.97216 68.8584C7.82234 68.7908 7.70351 68.6914 7.61569 68.5601C7.52915 68.4288 7.48588 68.2669 7.48588 68.0744C7.48588 67.9087 7.51688 67.7716 7.57888 67.6633C7.64087 67.5549 7.72547 67.4682 7.83267 67.4032C7.93987 67.3382 8.06063 67.2891 8.19495 67.256C8.33057 67.2215 8.4707 67.1967 8.61536 67.1814C8.78972 67.1635 8.93115 67.1476 9.03964 67.1336C9.14813 67.1183 9.22691 67.0953 9.27599 67.0648C9.32637 67.0329 9.35155 66.9838 9.35155 66.9175V66.906C9.35155 66.762 9.30828 66.6504 9.22175 66.5714C9.13521 66.4924 9.01058 66.4528 8.84784 66.4528C8.67606 66.4528 8.5398 66.4898 8.43906 66.5637C8.33961 66.6377 8.27245 66.725 8.23757 66.8257L7.58275 66.7339C7.63441 66.5555 7.71966 66.4063 7.83848 66.2865C7.9573 66.1654 8.10261 66.0749 8.27439 66.0149C8.44616 65.9538 8.63602 65.9231 8.84397 65.9231C8.98733 65.9231 9.13005 65.9397 9.27212 65.9729C9.41419 66.006 9.54399 66.0608 9.66153 66.1373C9.77906 66.2125 9.87334 66.3152 9.94438 66.4452C10.0167 66.5752 10.0529 66.7378 10.0529 66.9328V68.8986H9.37867V68.4951H9.35542C9.3128 68.5767 9.25275 68.6532 9.17525 68.7246C9.09905 68.7947 9.00283 68.8514 8.88659 68.8947C8.77164 68.9368 8.63667 68.9578 8.48168 68.9578ZM8.66379 68.4492C8.80457 68.4492 8.92663 68.4218 9.02995 68.367C9.13328 68.3109 9.21271 68.2369 9.26824 68.1451C9.32507 68.0534 9.35349 67.9533 9.35349 67.8449V67.4988C9.33153 67.5167 9.29408 67.5332 9.24112 67.5485C9.18946 67.5638 9.13134 67.5772 9.06676 67.5887C9.00218 67.6002 8.93825 67.6104 8.87496 67.6193C8.81168 67.6282 8.75678 67.6359 8.71029 67.6422C8.60567 67.6563 8.51203 67.6792 8.42937 67.7111C8.34671 67.7429 8.28149 67.7876 8.2337 67.8449C8.18591 67.901 8.16202 67.9737 8.16202 68.0629C8.16202 68.1904 8.20916 68.2867 8.30344 68.3517C8.39773 68.4167 8.51784 68.4492 8.66379 68.4492Z" fill="black"/>
<path d="M13.3612 64.8753L13.6053 65.3227C13.5187 65.3967 13.4219 65.4502 13.3147 65.4833C13.2075 65.5165 13.0815 65.5382 12.9369 65.5484C12.7935 65.5573 12.623 65.5637 12.4254 65.5675C12.2033 65.5726 12.0218 65.614 11.881 65.6918C11.7403 65.7695 11.6324 65.8875 11.5575 66.0455C11.4826 66.2023 11.4335 66.4025 11.4103 66.646H11.4432C11.5362 66.4662 11.6666 66.3292 11.8345 66.2348C12.0024 66.1405 12.1994 66.0933 12.4254 66.0933C12.6721 66.0933 12.8897 66.1482 13.0783 66.2578C13.2682 66.3661 13.4161 66.5236 13.522 66.7301C13.6292 66.9366 13.6828 67.1865 13.6828 67.4797C13.6828 67.7818 13.6253 68.0438 13.5103 68.2656C13.3954 68.4862 13.232 68.6563 13.0202 68.7762C12.8097 68.896 12.5597 68.9559 12.2704 68.9559C11.9824 68.9559 11.7319 68.8941 11.5187 68.7704C11.3069 68.6455 11.1429 68.4613 11.0267 68.2178C10.9117 67.973 10.8542 67.6716 10.8542 67.3133V67.0494C10.8542 66.3585 10.9847 65.8428 11.2456 65.5025C11.5065 65.1621 11.8933 64.9887 12.4061 64.9823C12.5585 64.9798 12.6947 64.9792 12.8148 64.9804C12.9362 64.9817 13.0422 64.976 13.1326 64.9632C13.223 64.9505 13.2992 64.9212 13.3612 64.8753ZM12.2743 68.4014C12.4177 68.4014 12.5417 68.3651 12.6463 68.2924C12.7509 68.2185 12.831 68.1139 12.8865 67.9788C12.9433 67.8437 12.9718 67.6837 12.9718 67.4988C12.9718 67.3165 12.9433 67.1616 12.8865 67.0342C12.8297 66.9054 12.749 66.8072 12.6443 66.7397C12.5397 66.6721 12.4151 66.6383 12.2704 66.6383C12.1619 66.6383 12.0644 66.6574 11.9779 66.6957C11.8914 66.7339 11.8177 66.79 11.757 66.864C11.6963 66.9379 11.6498 67.0278 11.6176 67.1336C11.5853 67.2394 11.5678 67.3611 11.5652 67.4988C11.5652 67.7755 11.6285 67.9954 11.7551 68.1585C11.8817 68.3204 12.0547 68.4014 12.2743 68.4014Z" fill="black"/>
<path d="M15.7957 68.9559C15.5051 68.9559 15.2533 68.8928 15.0402 68.7666C14.827 68.6404 14.6617 68.4639 14.5442 68.2369C14.4279 68.01 14.3698 67.7449 14.3698 67.4415C14.3698 67.138 14.4279 66.8723 14.5442 66.6441C14.6617 66.4159 14.827 66.2387 15.0402 66.1125C15.2533 65.9863 15.5051 65.9231 15.7957 65.9231C16.0863 65.9231 16.3382 65.9863 16.5513 66.1125C16.7644 66.2387 16.9291 66.4159 17.0453 66.6441C17.1628 66.8723 17.2216 67.138 17.2216 67.4415C17.2216 67.7449 17.1628 68.01 17.0453 68.2369C16.9291 68.4639 16.7644 68.6404 16.5513 68.7666C16.3382 68.8928 16.0863 68.9559 15.7957 68.9559ZM15.7996 68.4014C15.9572 68.4014 16.0889 68.3587 16.1948 68.2733C16.3007 68.1866 16.3795 68.0706 16.4312 67.9252C16.4841 67.7799 16.5106 67.618 16.5106 67.4395C16.5106 67.2598 16.4841 67.0973 16.4312 66.9519C16.3795 66.8053 16.3007 66.6887 16.1948 66.602C16.0889 66.5153 15.9572 66.472 15.7996 66.472C15.6381 66.472 15.5038 66.5153 15.3966 66.602C15.2907 66.6887 15.2113 66.8053 15.1583 66.9519C15.1067 67.0973 15.0808 67.2598 15.0808 67.4395C15.0808 67.618 15.1067 67.7799 15.1583 67.9252C15.2113 68.0706 15.2907 68.1866 15.3966 68.2733C15.5038 68.3587 15.6381 68.4014 15.7996 68.4014Z" fill="black"/>
<path d="M18.0351 70V65.9614H18.7248V66.4471H18.7655C18.8016 66.3757 18.8526 66.2999 18.9185 66.2195C18.9844 66.138 19.0735 66.0685 19.1859 66.0111C19.2982 65.9525 19.4416 65.9231 19.616 65.9231C19.8459 65.9231 20.0532 65.9812 20.2378 66.0972C20.4238 66.2119 20.5711 66.3821 20.6796 66.6077C20.7893 66.8321 20.8442 67.1075 20.8442 67.4338C20.8442 67.7563 20.7906 68.0304 20.6834 68.2561C20.5762 68.4817 20.4303 68.6538 20.2456 68.7724C20.0609 68.8909 19.8517 68.9502 19.6179 68.9502C19.4474 68.9502 19.306 68.9221 19.1936 68.8661C19.0812 68.81 18.9908 68.7424 18.9224 68.6634C18.8552 68.583 18.8029 68.5072 18.7655 68.4358H18.7364V70H18.0351ZM18.7228 67.43C18.7228 67.6199 18.75 67.7863 18.8042 67.9291C18.8597 68.0719 18.9392 68.1834 19.0425 68.2637C19.1471 68.3428 19.2737 68.3823 19.4222 68.3823C19.5772 68.3823 19.707 68.3415 19.8116 68.2599C19.9162 68.177 19.995 68.0642 20.048 67.9214C20.1022 67.7774 20.1294 67.6136 20.1294 67.43C20.1294 67.2477 20.1029 67.0858 20.0499 66.9443C19.997 66.8028 19.9182 66.6919 19.8136 66.6115C19.7089 66.5312 19.5785 66.4911 19.4222 66.4911C19.2724 66.4911 19.1452 66.53 19.0406 66.6077C18.9359 66.6855 18.8565 66.7945 18.8023 66.9347C18.7493 67.0749 18.7228 67.24 18.7228 67.43Z" fill="black"/>
<path d="M22.5193 68.9578C22.3308 68.9578 22.1609 68.9247 22.0098 68.8584C21.86 68.7908 21.7412 68.6914 21.6534 68.5601C21.5668 68.4288 21.5235 68.2669 21.5235 68.0744C21.5235 67.9087 21.5545 67.7716 21.6165 67.6633C21.6785 67.5549 21.7631 67.4682 21.8703 67.4032C21.9775 67.3382 22.0983 67.2891 22.2326 67.256C22.3682 67.2215 22.5084 67.1967 22.653 67.1814C22.8274 67.1635 22.9688 67.1476 23.0773 67.1336C23.1858 67.1183 23.2646 67.0953 23.3137 67.0648C23.364 67.0329 23.3892 66.9838 23.3892 66.9175V66.906C23.3892 66.762 23.3459 66.6504 23.2594 66.5714C23.1729 66.4924 23.0482 66.4528 22.8855 66.4528C22.7137 66.4528 22.5775 66.4898 22.4767 66.5637C22.3773 66.6377 22.3101 66.725 22.2752 66.8257L21.6204 66.7339C21.6721 66.5555 21.7573 66.4063 21.8761 66.2865C21.995 66.1654 22.1403 66.0749 22.312 66.0149C22.4838 65.9538 22.6737 65.9231 22.8816 65.9231C23.025 65.9231 23.1677 65.9397 23.3098 65.9729C23.4519 66.006 23.5817 66.0608 23.6992 66.1373C23.8167 66.2125 23.911 66.3152 23.982 66.4452C24.0544 66.5752 24.0905 66.7378 24.0905 66.9328V68.8986H23.4163V68.4951H23.3931C23.3505 68.5767 23.2904 68.6532 23.2129 68.7246C23.1367 68.7947 23.0405 68.8514 22.9243 68.8947C22.8093 68.9368 22.6743 68.9578 22.5193 68.9578ZM22.7015 68.4492C22.8422 68.4492 22.9643 68.4218 23.0676 68.367C23.1709 68.3109 23.2504 68.2369 23.3059 68.1451C23.3627 68.0534 23.3912 67.9533 23.3912 67.8449V67.4988C23.3692 67.5167 23.3317 67.5332 23.2788 67.5485C23.2271 67.5638 23.169 67.5772 23.1044 67.5887C23.0398 67.6002 22.9759 67.6104 22.9126 67.6193C22.8493 67.6282 22.7944 67.6359 22.748 67.6422C22.6433 67.6563 22.5497 67.6792 22.467 67.7111C22.3844 67.7429 22.3192 67.7876 22.2714 67.8449C22.2236 67.901 22.1997 67.9737 22.1997 68.0629C22.1997 68.1904 22.2468 68.2867 22.3411 68.3517C22.4354 68.4167 22.5555 68.4492 22.7015 68.4492Z" fill="black"/>
<path d="M24.6807 66.5293V65.9614H27.2845V66.5293H26.3217V68.8986H25.6436V66.5293H24.6807Z" fill="black"/>
<path d="M29.2367 68.9559C28.9461 68.9559 28.6942 68.8928 28.4811 68.7666C28.268 68.6404 28.1027 68.4639 27.9852 68.2369C27.8689 68.01 27.8108 67.7449 27.8108 67.4415C27.8108 67.138 27.8689 66.8723 27.9852 66.6441C28.1027 66.4159 28.268 66.2387 28.4811 66.1125C28.6942 65.9863 28.9461 65.9231 29.2367 65.9231C29.5273 65.9231 29.7791 65.9863 29.9922 66.1125C30.2054 66.2387 30.37 66.4159 30.4863 66.6441C30.6038 66.8723 30.6626 67.138 30.6626 67.4415C30.6626 67.7449 30.6038 68.01 30.4863 68.2369C30.37 68.4639 30.2054 68.6404 29.9922 68.7666C29.7791 68.8928 29.5273 68.9559 29.2367 68.9559ZM29.2406 68.4014C29.3981 68.4014 29.5299 68.3587 29.6358 68.2733C29.7417 68.1866 29.8205 68.0706 29.8721 67.9252C29.9251 67.7799 29.9516 67.618 29.9516 67.4395C29.9516 67.2598 29.9251 67.0973 29.8721 66.9519C29.8205 66.8053 29.7417 66.6887 29.6358 66.602C29.5299 66.5153 29.3981 66.472 29.2406 66.472C29.0791 66.472 28.9448 66.5153 28.8376 66.602C28.7317 66.6887 28.6522 66.8053 28.5993 66.9519C28.5476 67.0973 28.5218 67.2598 28.5218 67.4395C28.5218 67.618 28.5476 67.7799 28.5993 67.9252C28.6522 68.0706 28.7317 68.1866 28.8376 68.2733C28.9448 68.3587 29.0791 68.4014 29.2406 68.4014Z" fill="black"/>
<path d="M31.476 70V65.9614H32.1657V66.4471H32.2064C32.2426 66.3757 32.2936 66.2999 32.3595 66.2195C32.4253 66.138 32.5145 66.0685 32.6268 66.0111C32.7392 65.9525 32.8826 65.9231 33.0569 65.9231C33.2868 65.9231 33.4941 65.9812 33.6788 66.0972C33.8648 66.2119 34.012 66.3821 34.1205 66.6077C34.2303 66.8321 34.2852 67.1075 34.2852 67.4338C34.2852 67.7563 34.2316 68.0304 34.1244 68.2561C34.0172 68.4817 33.8713 68.6538 33.6866 68.7724C33.5019 68.8909 33.2926 68.9502 33.0589 68.9502C32.8884 68.9502 32.7469 68.9221 32.6346 68.8661C32.5222 68.81 32.4318 68.7424 32.3633 68.6634C32.2962 68.583 32.2439 68.5072 32.2064 68.4358H32.1774V70H31.476ZM32.1638 67.43C32.1638 67.6199 32.1909 67.7863 32.2452 67.9291C32.3007 68.0719 32.3801 68.1834 32.4835 68.2637C32.5881 68.3428 32.7147 68.3823 32.8632 68.3823C33.0182 68.3823 33.148 68.3415 33.2526 68.2599C33.3572 68.177 33.436 68.0642 33.4889 67.9214C33.5432 67.7774 33.5703 67.6136 33.5703 67.43C33.5703 67.2477 33.5438 67.0858 33.4909 66.9443C33.4379 66.8028 33.3591 66.6919 33.2545 66.6115C33.1499 66.5312 33.0195 66.4911 32.8632 66.4911C32.7134 66.4911 32.5861 66.53 32.4815 66.6077C32.3769 66.6855 32.2975 66.7945 32.2432 66.9347C32.1903 67.0749 32.1638 67.24 32.1638 67.43Z" fill="black"/>
<path d="M35.7801 67.9616L36.9716 65.9614H37.6923V68.8986H37.0142V66.8965L35.8266 68.8986H35.104V65.9614H35.7801V67.9616Z" fill="black"/>
<path d="M44.9951 68.9578C44.8065 68.9578 44.6367 68.9247 44.4856 68.8584C44.3358 68.7908 44.2169 68.6914 44.1291 68.5601C44.0426 68.4288 43.9993 68.2669 43.9993 68.0744C43.9993 67.9087 44.0303 67.7716 44.0923 67.6633C44.1543 67.5549 44.2389 67.4682 44.3461 67.4032C44.4533 67.3382 44.5741 67.2891 44.7084 67.256C44.844 67.2215 44.9841 67.1967 45.1288 67.1814C45.3031 67.1635 45.4446 67.1476 45.5531 67.1336C45.6616 67.1183 45.7403 67.0953 45.7894 67.0648C45.8398 67.0329 45.865 66.9838 45.865 66.9175V66.906C45.865 66.762 45.8217 66.6504 45.7352 66.5714C45.6486 66.4924 45.524 66.4528 45.3613 66.4528C45.1895 66.4528 45.0532 66.4898 44.9525 66.5637C44.853 66.6377 44.7859 66.725 44.751 66.8257L44.0962 66.7339C44.1478 66.5555 44.2331 66.4063 44.3519 66.2865C44.4707 66.1654 44.616 66.0749 44.7878 66.0149C44.9596 65.9538 45.1495 65.9231 45.3574 65.9231C45.5008 65.9231 45.6435 65.9397 45.7855 65.9729C45.9276 66.006 46.0574 66.0608 46.175 66.1373C46.2925 66.2125 46.3868 66.3152 46.4578 66.4452C46.5301 66.5752 46.5663 66.7378 46.5663 66.9328V68.8986H45.8921V68.4951H45.8689C45.8262 68.5767 45.7662 68.6532 45.6887 68.7246C45.6125 68.7947 45.5163 68.8514 45.4 68.8947C45.2851 68.9368 45.1501 68.9578 44.9951 68.9578ZM45.1772 68.4492C45.318 68.4492 45.4401 68.4218 45.5434 68.367C45.6467 68.3109 45.7261 68.2369 45.7817 68.1451C45.8385 68.0534 45.8669 67.9533 45.8669 67.8449V67.4988C45.845 67.5167 45.8075 67.5332 45.7546 67.5485C45.7029 67.5638 45.6448 67.5772 45.5802 67.5887C45.5156 67.6002 45.4517 67.6104 45.3884 67.6193C45.3251 67.6282 45.2702 67.6359 45.2237 67.6422C45.1191 67.6563 45.0255 67.6792 44.9428 67.7111C44.8601 67.7429 44.7949 67.7876 44.7471 67.8449C44.6993 67.901 44.6754 67.9737 44.6754 68.0629C44.6754 68.1904 44.7226 68.2867 44.8169 68.3517C44.9112 68.4167 45.0313 68.4492 45.1772 68.4492Z" fill="black"/>
<path d="M47.4897 68.8986V65.9614H48.7393C49.0919 65.9614 49.3702 66.0309 49.5743 66.1698C49.7797 66.3088 49.8823 66.5026 49.8823 66.7511C49.8823 66.9156 49.8242 67.0501 49.708 67.1546C49.593 67.2579 49.4361 67.3274 49.2372 67.3631C49.3935 67.3758 49.5304 67.4147 49.6479 67.4797C49.7668 67.5447 49.8597 67.6301 49.9269 67.7359C49.9941 67.8417 50.0276 67.9635 50.0276 68.1012C50.0276 68.2631 49.9844 68.4039 49.8978 68.5238C49.8126 68.6423 49.688 68.7347 49.5239 68.801C49.3612 68.8661 49.1636 68.8986 48.9311 68.8986H47.4897ZM48.1465 68.3536H48.9311C49.0603 68.3536 49.1617 68.3236 49.2353 68.2637C49.3089 68.2025 49.3457 68.1197 49.3457 68.0151C49.3457 67.894 49.3089 67.799 49.2353 67.7302C49.1617 67.6601 49.0603 67.625 48.9311 67.625H48.1465V68.3536ZM48.1465 67.1776H48.7529C48.8484 67.1776 48.9305 67.1642 48.9989 67.1374C49.0674 67.1094 49.1197 67.0705 49.1558 67.0208C49.192 66.9698 49.2101 66.9092 49.2101 66.8391C49.2101 66.7384 49.1681 66.6594 49.0842 66.602C49.0015 66.5446 48.8866 66.5159 48.7393 66.5159H48.1465V67.1776Z" fill="black"/>
<path d="M51.5008 67.9616L52.6923 65.9614H53.4129V68.8986H52.7349V66.8965L51.5473 68.8986H50.8247V65.9614H51.5008V67.9616Z" fill="black"/>
<path d="M54.0182 66.5293V65.9614H56.622V66.5293H55.6591V68.8986H54.981V66.5293H54.0182Z" fill="black"/>
<path d="M58.5741 68.9559C58.2835 68.9559 58.0317 68.8928 57.8185 68.7666C57.6054 68.6404 57.4401 68.4639 57.3226 68.2369C57.2063 68.01 57.1482 67.7449 57.1482 67.4415C57.1482 67.138 57.2063 66.8723 57.3226 66.6441C57.4401 66.4159 57.6054 66.2387 57.8185 66.1125C58.0317 65.9863 58.2835 65.9231 58.5741 65.9231C58.8647 65.9231 59.1166 65.9863 59.3297 66.1125C59.5428 66.2387 59.7075 66.4159 59.8237 66.6441C59.9412 66.8723 60 67.138 60 67.4415C60 67.7449 59.9412 68.01 59.8237 68.2369C59.7075 68.4639 59.5428 68.6404 59.3297 68.7666C59.1166 68.8928 58.8647 68.9559 58.5741 68.9559ZM58.578 68.4014C58.7356 68.4014 58.8673 68.3587 58.9732 68.2733C59.0791 68.1866 59.1579 68.0706 59.2096 67.9252C59.2625 67.7799 59.289 67.618 59.289 67.4395C59.289 67.2598 59.2625 67.0973 59.2096 66.9519C59.1579 66.8053 59.0791 66.6887 58.9732 66.602C58.8673 66.5153 58.7356 66.472 58.578 66.472C58.4165 66.472 58.2822 66.5153 58.175 66.602C58.0691 66.6887 57.9897 66.8053 57.9367 66.9519C57.8851 67.0973 57.8592 67.2598 57.8592 67.4395C57.8592 67.618 57.8851 67.7799 57.9367 67.9252C57.9897 68.0706 58.0691 68.1866 58.175 68.2733C58.2822 68.3587 58.4165 68.4014 58.578 68.4014Z" fill="black"/>
<path d="M50.818 34.6567L46.874 45.8104H43.3487L39.4047 34.6567H42.7097L45.0526 42.6371H45.1701L47.5057 34.6567H50.818Z" fill="black"/>
<path d="M53.2464 45.8104V34.6567H56.3751V45.8104H53.2464ZM54.8181 33.2189C54.353 33.2189 53.9539 33.0664 53.621 32.7614C53.2929 32.4516 53.1289 32.0812 53.1289 31.6504C53.1289 31.2243 53.2929 30.8588 53.621 30.5539C53.9539 30.244 54.353 30.0891 54.8181 30.0891C55.2833 30.0891 55.6799 30.244 56.0079 30.5539C56.3409 30.8588 56.5073 31.2243 56.5073 31.6504C56.5073 32.0812 56.3409 32.4516 56.0079 32.7614C55.6799 33.0664 55.2833 33.2189 54.8181 33.2189Z" fill="black"/>
<path d="M26.0733 62.0979V47.2262H29.2535V59.5055H35.7019V62.0979H26.0733Z" fill="black"/>
<path d="M40.8238 62.3085C40.104 62.3085 39.4626 62.185 38.8995 61.9381C38.3365 61.6864 37.8909 61.3161 37.5629 60.8271C37.2397 60.3333 37.0781 59.7185 37.0781 58.9827C37.0781 58.363 37.1932 57.8426 37.4233 57.4214C37.6534 57.0003 37.9668 56.6614 38.3634 56.4048C38.76 56.1482 39.2105 55.9546 39.7148 55.8239C40.224 55.6932 40.7577 55.6012 41.3159 55.548C41.972 55.4802 42.5008 55.4172 42.9023 55.3591C43.3038 55.2962 43.5951 55.2042 43.7763 55.0832C43.9574 54.9622 44.048 54.7831 44.048 54.5459V54.5023C44.048 54.0424 43.9011 53.6866 43.6073 53.4348C43.3185 53.1831 42.9072 53.0572 42.3735 53.0572C41.8104 53.0572 41.3624 53.1807 41.0294 53.4276C40.6965 53.6696 40.4762 53.9746 40.3684 54.3425L37.4747 54.1102C37.6216 53.4324 37.9105 52.8466 38.3414 52.3529C38.7722 51.8542 39.328 51.4718 40.0086 51.2055C40.694 50.9344 41.4872 50.7989 42.3882 50.7989C43.0149 50.7989 43.6147 50.8715 44.1876 51.0167C44.7653 51.162 45.277 51.3871 45.7225 51.6921C46.173 51.997 46.528 52.3892 46.7875 52.8684C47.047 53.3429 47.1767 53.9117 47.1767 54.5749V62.0979H44.2096V60.5512H44.1215C43.9403 60.8997 43.6979 61.2071 43.3944 61.4734C43.0908 61.7348 42.726 61.9405 42.3 62.0906C41.874 62.2359 41.382 62.3085 40.8238 62.3085ZM41.7198 60.1736C42.1801 60.1736 42.5865 60.084 42.939 59.9049C43.2915 59.7209 43.5682 59.474 43.7689 59.1642C43.9697 58.8544 44.07 58.5034 44.07 58.1113V56.9276C43.9721 56.9906 43.8375 57.0487 43.6661 57.1019C43.4996 57.1503 43.3111 57.1963 43.1006 57.2399C42.89 57.2786 42.6795 57.3149 42.469 57.3488C42.2584 57.3779 42.0675 57.4045 41.8961 57.4287C41.5289 57.482 41.2081 57.5667 40.934 57.6829C40.6598 57.799 40.4468 57.9564 40.295 58.1549C40.1432 58.3485 40.0673 58.5905 40.0673 58.881C40.0673 59.3022 40.2215 59.6241 40.53 59.8468C40.8434 60.0646 41.24 60.1736 41.7198 60.1736Z" fill="black"/>
<path d="M48.998 62.0979V47.2262H52.1267V52.8176H52.2222C52.3593 52.5175 52.5576 52.2125 52.8171 51.9026C53.0815 51.588 53.4242 51.3266 53.8453 51.1184C54.2713 50.9054 54.8001 50.7989 55.4317 50.7989C56.2543 50.7989 57.0132 51.0119 57.7085 51.4379C58.4038 51.8591 58.9595 52.4957 59.3757 53.3477C59.7919 54.1949 60 55.2575 60 56.5355C60 57.7797 59.7968 58.8302 59.3904 59.687C58.9889 60.5391 58.4405 61.1853 57.7452 61.6259C57.0549 62.0616 56.2812 62.2794 55.4244 62.2794C54.8172 62.2794 54.3007 62.1802 53.8747 61.9817C53.4536 61.7832 53.1084 61.5339 52.8391 61.2338C52.5698 60.9288 52.3642 60.6214 52.2222 60.3115H52.0827V62.0979H48.998ZM52.0606 56.521C52.0606 57.1842 52.1537 57.7627 52.3397 58.2565C52.5258 58.7503 52.7951 59.1352 53.1476 59.4111C53.5001 59.6822 53.9286 59.8178 54.4329 59.8178C54.9421 59.8178 55.373 59.6798 55.7255 59.4038C56.0781 59.1231 56.3449 58.7358 56.5261 58.242C56.7121 57.7434 56.8052 57.1697 56.8052 56.521C56.8052 55.8771 56.7146 55.3107 56.5334 54.8218C56.3522 54.3328 56.0854 53.9504 55.7329 53.6745C55.3803 53.3985 54.947 53.2606 54.4329 53.2606C53.9237 53.2606 53.4928 53.3937 53.1403 53.6599C52.7926 53.9262 52.5258 54.3038 52.3397 54.7927C52.1537 55.2817 52.0606 55.8578 52.0606 56.521Z" fill="black"/>
<path fill-rule="evenodd" clip-rule="evenodd" d="M28.0675 45.8104H24.6597L29.8522 30.9387H33.9504L39.1356 45.8104H35.7278L34.6142 42.4193H29.1833L28.0675 45.8104ZM31.8426 34.3371H31.9601L33.8082 39.9649H29.9909L31.8426 34.3371Z" fill="black"/>
<path fill-rule="evenodd" clip-rule="evenodd" d="M40.3898 67.7933V68.8986H41.0466V65.9614H39.7544C39.5116 65.9614 39.3017 66.0003 39.1248 66.078C38.9491 66.1545 38.8135 66.2629 38.7179 66.4031C38.6236 66.5421 38.5765 66.7059 38.5765 66.8946C38.5765 67.0756 38.623 67.2337 38.716 67.3688C38.809 67.5039 38.942 67.6085 39.1151 67.6824C39.1215 67.6851 39.1279 67.6878 39.1344 67.6904L38.468 68.8986H39.1577L39.7687 67.7933H40.3898ZM40.3898 67.2885H39.7311C39.5774 67.2885 39.4593 67.2528 39.3766 67.1814C39.2939 67.11 39.2533 67.0195 39.2546 66.9099C39.2533 66.8002 39.2959 66.7084 39.3824 66.6345C39.469 66.5606 39.593 66.5236 39.7544 66.5236H40.3898V67.2885Z" fill="black"/>
<path fill-rule="evenodd" clip-rule="evenodd" d="M6.91099 53.7717C6.91099 56.8164 9.40742 59.2847 12.4869 59.2847C15.5664 59.2847 18.0628 56.8164 18.0628 53.7717L18.0628 36.0145C18.0628 36.0145 13.9791 36.7133 12.4869 34.3451C10.9948 31.9768 6.911 32.6756 6.911 32.6756L6.91099 53.7717ZM10.7592 42.8087C11.1495 42.8087 11.466 42.4958 11.466 42.1098C11.466 41.7239 11.1495 41.411 10.7592 41.411C10.3688 41.411 10.0524 41.7239 10.0524 42.1098C10.0524 42.4958 10.3688 42.8087 10.7592 42.8087ZM9.34555 37.6839C10.0829 37.6839 10.6806 37.0929 10.6806 36.3639C10.6806 35.6349 10.0829 35.0439 9.34555 35.0439C8.60821 35.0439 8.01047 35.6349 8.01047 36.3639C8.01047 37.0929 8.60821 37.6839 9.34555 37.6839ZM14.2147 41.1004C15.2122 41.1004 16.0209 40.3009 16.0209 39.3145C16.0209 38.3282 15.2122 37.5286 14.2147 37.5286C13.2171 37.5286 12.4084 38.3282 12.4084 39.3145C12.4084 40.3009 13.2171 41.1004 14.2147 41.1004Z" fill="#00AAFF"/>
<path fill-rule="evenodd" clip-rule="evenodd" d="M10.7592 42.8087C11.1495 42.8087 11.466 42.4958 11.466 42.1098C11.466 41.7239 11.1495 41.411 10.7592 41.411C10.3688 41.411 10.0524 41.7239 10.0524 42.1098C10.0524 42.4958 10.3688 42.8087 10.7592 42.8087ZM14.2147 41.1004C15.2122 41.1004 16.0209 40.3009 16.0209 39.3145C16.0209 38.3282 15.2122 37.5286 14.2147 37.5286C13.2171 37.5286 12.4084 38.3282 12.4084 39.3145C12.4084 40.3009 13.2171 41.1004 14.2147 41.1004Z" fill="white"/>
</svg>
