<svg width="67" height="23" viewBox="0 0 67 23" fill="none" xmlns="http://www.w3.org/2000/svg">
<path d="M29.1625 7.90517H31.5101C32.0671 7.90517 32.5814 8.01227 33.0529 8.22631C33.5245 8.43691 33.9106 8.71485 34.2114 9.06013C34.5154 9.40197 34.7496 9.78348 34.9135 10.2047C35.081 10.6225 35.1647 11.0454 35.1647 11.4736C35.1647 12.1192 35.0229 12.7131 34.7393 13.2551C34.4591 13.7972 34.0371 14.2392 33.4732 14.581C32.9128 14.9228 32.2584 15.0937 31.5101 15.0937H29.1728C29.1181 15.0937 29.072 15.0764 29.0344 15.0419C29.0002 15.0039 28.9831 14.9591 28.9831 14.9072V8.08127C28.9831 8.03297 28.9985 7.9915 29.0293 7.957C29.0634 7.9225 29.1079 7.90517 29.1625 7.90517ZM30.5516 13.5141H31.5101C32.1286 13.5141 32.6155 13.3052 32.9709 12.8874C33.3263 12.4697 33.4972 11.9863 33.4835 11.4373C33.4766 10.8987 33.3006 10.4378 32.9556 10.0545C32.6138 9.66776 32.132 9.47442 31.5101 9.47442H30.5516V13.5141Z" fill="#6C6C6C"/>
<path d="M47.8532 12.5663L49.3449 14.8762C49.3872 14.9349 49.3942 14.9867 49.366 15.0316C49.3378 15.073 49.2867 15.0937 49.2126 15.0937H48.049C47.8162 15.0937 47.6169 14.9642 47.4512 14.7053L46.3139 12.8564H45.1397V14.9072C45.1397 14.9625 45.1203 15.0074 45.0814 15.0419C45.0462 15.0764 45.0039 15.0937 44.9545 15.0937H43.6956C43.6462 15.0937 43.6022 15.0764 43.5634 15.0419C43.5281 15.0039 43.5105 14.9591 43.5105 14.9072V8.08127C43.5105 8.03297 43.5281 7.9915 43.5634 7.957C43.5986 7.9225 43.6427 7.90517 43.6956 7.90517H46.7636C47.4371 7.90517 48.0031 8.16759 48.4615 8.69242C48.92 9.2138 49.1492 9.76796 49.1492 10.3549C49.1492 10.7865 49.031 11.2077 48.7948 11.6186C48.5585 12.0294 48.2446 12.3454 47.8532 12.5663ZM45.1397 11.3389H46.5784C46.8711 11.3389 47.1004 11.2423 47.266 11.0488C47.4318 10.852 47.5112 10.6208 47.5041 10.3549C47.497 10.1028 47.4124 9.88706 47.2502 9.70751C47.0915 9.52452 46.8676 9.43302 46.5784 9.43302H45.1397V11.3389Z" fill="#6C6C6C"/>
<path d="M55.2232 7.90517H56.6168C56.6753 7.90517 56.7235 7.92401 56.7613 7.96167C56.8026 7.99933 56.8112 8.04555 56.7871 8.10032L53.4941 14.9243C53.446 15.0373 53.3806 15.0937 53.298 15.0937H53.1948C53.1225 15.0937 53.0554 15.0373 52.9935 14.9243L49.7056 8.09004C49.6816 8.0421 49.6884 7.99933 49.7263 7.96167C49.7641 7.92401 49.814 7.90517 49.876 7.90517H51.2644C51.3298 7.90517 51.3883 7.96339 51.4399 8.07976L53.2309 11.9564C53.2378 11.9667 53.2481 11.9667 53.2619 11.9564L55.0425 8.07976C55.0976 7.96339 55.1578 7.90517 55.2232 7.90517Z" fill="#6C6C6C"/>
<path d="M39.2077 7.99265L42.5582 14.8879C42.5891 14.9462 42.5908 14.9959 42.5634 15.0371C42.5393 15.0748 42.4947 15.0937 42.4295 15.0937H41.1017C41.0125 15.0937 40.949 15.0542 40.9113 14.9754L40.5562 14.1983H37.4991L37.144 14.9754C37.1097 15.0542 37.0462 15.0937 36.9536 15.0937H35.6154C35.5571 15.0937 35.5159 15.0748 35.4919 15.0371C35.4679 14.9959 35.4679 14.9462 35.4919 14.8879L38.8475 7.99265C38.8818 7.93436 38.9264 7.90517 38.9813 7.90517H39.0637C39.1254 7.90517 39.1734 7.93436 39.2077 7.99265ZM39.9025 12.7884L39.0276 10.8948L38.1527 12.7884H39.9025Z" fill="#6C6C6C"/>
<path d="M59.0848 7.90517C59.1322 7.90517 59.1746 7.9225 59.2119 7.957C59.2525 7.9915 59.2728 8.03297 59.2728 8.08127V14.9072C59.2728 14.9556 59.2542 14.9987 59.217 15.0368C59.1831 15.0747 59.1424 15.0937 59.0949 15.0937H57.9105C57.8562 15.0937 57.8122 15.0764 57.7783 15.0419C57.7444 15.0039 57.7275 14.9591 57.7275 14.9072V8.08127C57.7275 8.03297 57.7427 7.9915 57.7732 7.957C57.8071 7.9225 57.8512 7.90517 57.9054 7.90517H59.0848Z" fill="#6C6C6C"/>
<path d="M65.628 7.90517H66.8116C66.8657 7.90517 66.9097 7.9225 66.9438 7.957C66.9815 7.9915 67 8.03297 67 8.08127V14.9124C67 14.9608 66.9829 15.0039 66.9488 15.0419C66.9182 15.0764 66.8756 15.0937 66.8216 15.0937H66.4338C66.1551 15.0937 65.8541 14.9107 65.5312 14.5447L62.3791 11.023V14.9072C62.3791 14.9556 62.3587 14.997 62.3179 15.0316C62.2805 15.0661 62.238 15.0833 62.1904 15.0833L61.0072 15.0937C60.9527 15.0937 60.9068 15.0764 60.8694 15.0419C60.8354 15.0039 60.8185 14.9591 60.8185 14.9072V8.08127C60.8185 8.03297 60.8354 7.9915 60.8694 7.957C60.9068 7.9225 60.9493 7.90517 60.9969 7.90517H61.7212C61.7994 7.90517 61.8708 7.94665 61.9354 8.02952L65.4495 12.1002V8.08127C65.4495 8.03297 65.4666 7.9915 65.5005 7.957C65.5379 7.9225 65.5804 7.90517 65.628 7.90517Z" fill="#6C6C6C"/>
<path fill-rule="evenodd" clip-rule="evenodd" d="M1.12673 20.5C0.935974 20.9379 0.747254 21.3712 0.566825 21.7993C0.32779 22.3665 0.763609 22.9789 1.43214 22.9925C1.68071 22.9975 1.92996 23 2.17985 23C9.42279 23 16.1198 20.877 21.5575 17.2787C22.7966 16.4587 23.1103 14.9168 22.2885 13.7414C17.6023 7.03983 10.3271 1.89382 1.57289 0.0335217C0.484938 -0.197674 -0.332026 0.810096 0.133597 1.73258C0.261696 1.98637 0.388533 2.24641 0.513854 2.51713C7.9337 3.57245 15.2274 6.62795 19.6567 14.5994C19.8377 14.9252 19.7601 15.3219 19.4591 15.5635C15.9049 18.4167 10.3849 20.5156 4.89655 20.5156C4.61022 20.5156 4.3251 20.5106 4.04129 20.5007C3.73306 20.4899 3.53006 20.2096 3.63432 19.946C3.66998 19.8558 3.70588 19.7651 3.74192 19.6741C3.96139 19.1201 4.22797 18.5576 4.49952 17.9847C5.32349 16.2462 6.1931 14.4114 5.93041 12.4237L5.55612 9.97122C5.53536 9.83523 5.44314 9.71678 5.30883 9.65368L5.04732 9.53084C4.81293 9.42073 4.5381 9.40614 4.29116 9.49066L3.22465 9.85564C2.91215 9.96259 2.74266 10.2697 2.83534 10.5611L3.42779 12.4237C3.42779 15.218 2.24256 17.9386 1.12673 20.5ZM16.839 15.2993C17.3855 15.2993 17.8284 14.897 17.8284 14.4007C17.8284 13.9044 17.3855 13.5022 16.839 13.5022C16.2926 13.5022 15.8496 13.9044 15.8496 14.4007C15.8496 14.897 16.2926 15.2993 16.839 15.2993Z" fill="#6C6C6C"/>
<path d="M30.7154 21.5846H29.3779V17.3385H30.7578C31.1626 17.3385 31.5103 17.4235 31.8008 17.5935C32.0913 17.7621 32.3139 18.0047 32.4686 18.3212C32.6246 18.6364 32.7026 19.0144 32.7026 19.4553C32.7026 19.8976 32.6239 20.2777 32.4666 20.5956C32.3106 20.9135 32.0846 21.1582 31.7887 21.3296C31.4928 21.4996 31.1351 21.5846 30.7154 21.5846ZM30.0012 21.0248H30.6811C30.9959 21.0248 31.2574 20.964 31.4659 20.8424C31.6744 20.7194 31.8304 20.5417 31.934 20.3095C32.0375 20.0759 32.0893 19.7912 32.0893 19.4553C32.0893 19.1222 32.0375 18.8395 31.934 18.6073C31.8318 18.3751 31.6791 18.1989 31.476 18.0786C31.2729 17.9584 31.0207 17.8983 30.7195 17.8983H30.0012V21.0248Z" fill="#6C6C6C"/>
<path d="M33.4294 21.5846V18.4H34.0326V21.5846H33.4294ZM33.734 17.9086C33.6291 17.9086 33.539 17.8727 33.4637 17.8008C33.3897 17.7276 33.3527 17.6405 33.3527 17.5396C33.3527 17.4373 33.3897 17.3502 33.4637 17.2783C33.539 17.2051 33.6291 17.1684 33.734 17.1684C33.839 17.1684 33.9284 17.2051 34.0024 17.2783C34.0777 17.3502 34.1153 17.4373 34.1153 17.5396C34.1153 17.6405 34.0777 17.7276 34.0024 17.8008C33.9284 17.8727 33.839 17.9086 33.734 17.9086Z" fill="#6C6C6C"/>
<path d="M36.1434 22.8452C35.8973 22.8452 35.6854 22.812 35.5079 22.7457C35.3317 22.6793 35.1878 22.5916 35.0762 22.4824C34.9645 22.3732 34.8811 22.2536 34.826 22.1237L35.3445 21.9039C35.3808 21.9647 35.4292 22.029 35.4897 22.0967C35.5516 22.1658 35.635 22.2246 35.7399 22.273C35.8461 22.3213 35.9827 22.3455 36.1494 22.3455C36.3781 22.3455 36.5671 22.2882 36.7163 22.1734C36.8656 22.0601 36.9403 21.879 36.9403 21.6302V21.0041H36.902C36.8656 21.0718 36.8132 21.1471 36.7446 21.2301C36.6773 21.313 36.5845 21.3849 36.4662 21.4457C36.3478 21.5065 36.1938 21.5369 36.0042 21.5369C35.7594 21.5369 35.5388 21.4782 35.3425 21.3607C35.1474 21.2418 34.9928 21.067 34.8784 20.8361C34.7655 20.6039 34.709 20.3185 34.709 19.9799C34.709 19.6412 34.7648 19.351 34.8764 19.1091C34.9894 18.8672 35.1441 18.682 35.3404 18.5534C35.5368 18.4235 35.7594 18.3585 36.0082 18.3585C36.2006 18.3585 36.3559 18.3917 36.4743 18.4581C36.5926 18.523 36.6847 18.599 36.7506 18.6861C36.8179 18.7732 36.8697 18.8499 36.906 18.9163H36.9504V18.4H37.5415V21.6551C37.5415 21.9288 37.4796 22.1534 37.3559 22.3289C37.2321 22.5045 37.0647 22.6344 36.8535 22.7187C36.6437 22.803 36.407 22.8452 36.1434 22.8452ZM36.1373 21.0227C36.3108 21.0227 36.4574 20.9813 36.5771 20.8983C36.6982 20.814 36.7896 20.6938 36.8515 20.5376C36.9147 20.38 36.9463 20.1913 36.9463 19.9716C36.9463 19.7573 36.9154 19.5687 36.8535 19.4056C36.7917 19.2425 36.7009 19.1153 36.5812 19.0241C36.4615 18.9315 36.3135 18.8852 36.1373 18.8852C35.9558 18.8852 35.8045 18.9335 35.6834 19.0303C35.5624 19.1257 35.4709 19.2556 35.409 19.4201C35.3485 19.5846 35.3182 19.7684 35.3182 19.9716C35.3182 20.1803 35.3492 20.3634 35.411 20.521C35.4729 20.6786 35.5644 20.8016 35.6854 20.8901C35.8078 20.9785 35.9585 21.0227 36.1373 21.0227Z" fill="#6C6C6C"/>
<path d="M38.3505 21.5846V18.4H38.9537V21.5846H38.3505ZM38.6551 17.9086C38.5502 17.9086 38.4601 17.8727 38.3848 17.8008C38.3108 17.7276 38.2738 17.6405 38.2738 17.5396C38.2738 17.4373 38.3108 17.3502 38.3848 17.2783C38.4601 17.2051 38.5502 17.1684 38.6551 17.1684C38.76 17.1684 38.8495 17.2051 38.9234 17.2783C38.9988 17.3502 39.0364 17.4373 39.0364 17.5396C39.0364 17.6405 38.9988 17.7276 38.9234 17.8008C38.8495 17.8727 38.76 17.9086 38.6551 17.9086Z" fill="#6C6C6C"/>
<path d="M41.2117 18.4V18.8976H39.5191V18.4H41.2117ZM39.973 17.637H40.5762V20.6495C40.5762 20.7698 40.5937 20.8603 40.6287 20.9212C40.6637 20.9806 40.7087 21.0214 40.7639 21.0435C40.8204 21.0642 40.8816 21.0746 40.9475 21.0746C40.9959 21.0746 41.0382 21.0711 41.0746 21.0642C41.1109 21.0573 41.1391 21.0518 41.1593 21.0476L41.2682 21.5597C41.2333 21.5736 41.1835 21.5874 41.1189 21.6012C41.0544 21.6164 40.9737 21.6247 40.8768 21.6261C40.7181 21.6288 40.5702 21.5998 40.433 21.539C40.2958 21.4782 40.1849 21.3842 40.1001 21.257C40.0154 21.1299 39.973 20.9702 39.973 20.7781V17.637Z" fill="#6C6C6C"/>
<path d="M42.7808 21.6551C42.5844 21.6551 42.4069 21.6178 42.2482 21.5431C42.0895 21.4671 41.9637 21.3572 41.8709 21.2135C41.7795 21.0697 41.7338 20.8935 41.7338 20.6848C41.7338 20.5051 41.7674 20.3572 41.8346 20.2411C41.9019 20.125 41.9927 20.0331 42.107 19.9654C42.2213 19.8976 42.3491 19.8465 42.4903 19.8119C42.6315 19.7774 42.7754 19.7511 42.922 19.7331C43.1076 19.711 43.2583 19.6931 43.3739 19.6792C43.4896 19.664 43.5737 19.6398 43.6261 19.6067C43.6786 19.5735 43.7048 19.5196 43.7048 19.445V19.4304C43.7048 19.2494 43.655 19.1091 43.5555 19.0096C43.4573 18.91 43.3107 18.8603 43.1157 18.8603C42.9126 18.8603 42.7526 18.9066 42.6356 18.9992C42.5199 19.0904 42.4399 19.192 42.3955 19.304L41.8286 19.1713C41.8958 18.9778 41.994 18.8216 42.1231 18.7027C42.2536 18.5825 42.4036 18.4954 42.573 18.4415C42.7425 18.3862 42.9207 18.3585 43.1076 18.3585C43.2314 18.3585 43.3625 18.3737 43.501 18.4041C43.6409 18.4332 43.7714 18.4871 43.8924 18.5659C44.0148 18.6446 44.115 18.7573 44.193 18.9038C44.271 19.0489 44.31 19.2376 44.31 19.4698V21.5846H43.721V21.1492H43.6967C43.6577 21.2294 43.5992 21.3082 43.5212 21.3856C43.4432 21.463 43.343 21.5273 43.2206 21.5784C43.0982 21.6295 42.9516 21.6551 42.7808 21.6551ZM42.9119 21.1575C43.0787 21.1575 43.2213 21.1236 43.3397 21.0559C43.4594 20.9882 43.5501 20.8997 43.612 20.7905C43.6752 20.68 43.7068 20.5618 43.7068 20.436V20.0255C43.6853 20.0476 43.6436 20.0683 43.5817 20.0877C43.5212 20.1056 43.452 20.1215 43.3739 20.1354C43.2959 20.1478 43.2199 20.1596 43.146 20.1706C43.072 20.1803 43.0101 20.1886 42.9604 20.1955C42.8434 20.2107 42.7364 20.2363 42.6396 20.2722C42.5441 20.3081 42.4674 20.36 42.4096 20.4277C42.3531 20.494 42.3249 20.5825 42.3249 20.6931C42.3249 20.8465 42.38 20.9626 42.4903 21.0414C42.6006 21.1188 42.7411 21.1575 42.9119 21.1575Z" fill="#6C6C6C"/>
<path d="M45.7167 17.3385V21.5846H45.1135V17.3385H45.7167Z" fill="#6C6C6C"/>
</svg>
