<svg width="16" height="12" viewBox="0 0 16 12" fill="none" xmlns="http://www.w3.org/2000/svg">
<path fill-rule="evenodd" clip-rule="evenodd" d="M1.16461 0.0493321C0.679429 0.154682 0.251281 0.530513 0.0881985 0.994233C-0.0886048 1.49696 0.0285973 2.07222 0.38186 2.43525C0.531254 2.58879 7.1708 7.02773 7.4228 7.14257C7.65308 7.24749 7.95631 7.28768 8.21196 7.24717C8.32798 7.22881 8.49325 7.18171 8.5792 7.14257C8.66514 7.10341 10.2544 6.05909 12.1109 4.82184C14.5303 3.20949 15.5275 2.52807 15.6319 2.41604C16.3814 1.61109 15.9248 0.281396 14.8184 0.0470209C14.5155 -0.0171323 1.46062 -0.014946 1.16461 0.0493321ZM0 7.00977C0 9.53932 0.0105013 10.7 0.0344418 10.815C0.150144 11.3713 0.612733 11.8298 1.17921 11.9498C1.49284 12.0162 14.5051 12.017 14.8184 11.9507C15.4108 11.8252 15.8591 11.3715 15.9706 10.7846C15.9942 10.6604 16.0018 9.50028 15.9955 6.99065L15.9864 3.37555L12.5679 5.65259C9.91536 7.41943 9.09488 7.95117 8.90614 8.0257C8.251 8.28443 7.54885 8.25817 6.94087 7.95217C6.81798 7.89033 5.21656 6.83874 3.38214 5.6153C1.54776 4.39186 0.0363483 3.38617 0.0234404 3.38046C0.0105326 3.37471 0 5.00793 0 7.00977Z" fill="#6C6C6C"/>
</svg>
