<svg width="24" height="29" viewBox="0 0 24 29" fill="none" xmlns="http://www.w3.org/2000/svg">
<path fill-rule="evenodd" clip-rule="evenodd" d="M3.74577 0.123199C2.89781 0.412734 2.23698 0.999901 1.84485 1.81246L1.62592 2.26616L1.60676 8.39121L1.58761 14.5163H1.25217C0.8201 14.5163 0.479717 14.6976 0.212077 15.0704L0 15.3659V19.4956V23.6253L0.174044 23.9254C0.39114 24.2998 0.713708 24.5011 1.18805 24.5583L1.55523 24.6025L1.59057 25.6844C1.62451 26.7236 1.6349 26.7851 1.85369 27.2411C2.15703 27.8735 2.77014 28.4789 3.40864 28.7765L3.88807 29H12.7599H21.6318L22.0913 28.7846C23.0948 28.3141 23.7758 27.4129 23.9234 26.36C23.9752 25.9907 24 22.8252 24 16.5794V7.34496L20.271 3.67252L16.542 0L10.3211 0.00111682C4.60418 0.00209403 4.07145 0.0120058 3.74577 0.123199ZM15.7997 4.2206C15.8338 6.4409 15.8408 6.53569 15.9962 6.847C16.219 7.29352 16.602 7.66186 17.0674 7.87741L17.461 8.05966L19.6938 8.07983L21.9267 8.1L21.9736 14.391C21.9995 17.8509 22.0199 21.9095 22.0191 23.41C22.0177 25.9147 22.0068 26.1615 21.8866 26.4229C21.7173 26.7908 21.4646 26.9821 21.0246 27.0753C20.5268 27.1807 4.98839 27.1797 4.49037 27.0743C3.74895 26.9173 3.49926 26.4587 3.49926 25.2539V24.5694L11.2276 24.5511L18.9559 24.5327L19.217 24.3582C19.3685 24.2569 19.5518 24.0389 19.6536 23.8385L19.8292 23.4932L19.8285 19.5457L19.8277 15.5982L19.6581 15.2384C19.5312 14.9693 19.4095 14.8328 19.1754 14.6974L18.8624 14.5163H11.1789H3.49538L3.51503 8.63552C3.53411 2.89849 3.53807 2.74898 3.67599 2.5178C3.96131 2.03945 4.09753 1.99129 5.28912 1.94752C5.8794 1.92581 8.47776 1.91011 11.0633 1.91262L15.7644 1.91716L15.7997 4.2206ZM6.02389 17.1937C6.47152 17.3539 6.73287 17.5764 6.92833 17.9637C7.17116 18.445 7.16536 18.91 6.91016 19.4068C6.56101 20.0865 5.96904 20.3796 4.94499 20.3796H4.48895V21.3219V22.2642H3.92342H3.35788V19.7178V17.1714L3.51694 17.1361C4.09661 17.0075 5.60024 17.0421 6.02389 17.1937ZM10.7982 17.201C11.8687 17.4789 12.4734 18.2344 12.534 19.3696C12.607 20.736 11.9668 21.7532 10.8191 22.0939C10.2291 22.2692 9.11597 22.3639 8.48306 22.2928L7.91753 22.2293L7.899 19.7023L7.88041 17.1753L8.11108 17.1376C8.88035 17.0116 10.1874 17.0424 10.7982 17.201ZM16.5773 17.5526V18.0063H15.5495H14.5217L14.5422 18.6171L14.5626 19.2278L15.4993 19.2473L16.4359 19.2668V19.7185V20.1702H15.4816H14.5272V21.2172V22.2642H13.9617H13.3962V19.6815V17.0989H14.9867H16.5773V17.5526ZM4.64801 17.9127C4.49433 17.9451 4.48895 17.9732 4.48895 18.7441V19.5419L4.89543 19.5417C5.37034 19.5414 5.69694 19.3789 5.86399 19.0599C6.04814 18.7083 5.96084 18.2778 5.66167 18.0623C5.49003 17.9387 4.92244 17.8549 4.64801 17.9127ZM9.08395 19.6905V21.4445L9.63655 21.4129C10.5944 21.3582 11.1087 20.9306 11.2783 20.0479C11.374 19.5497 11.3223 19.0681 11.1342 18.7059C10.8511 18.1611 10.4081 17.9365 9.6164 17.9365H9.08395V19.6905Z" fill="#FF4053"/>
</svg>
