<svg width="12" height="12" viewBox="0 0 12 12" fill="none" xmlns="http://www.w3.org/2000/svg">
<path fill-rule="evenodd" clip-rule="evenodd" d="M5.48399 0.0132257C4.31761 0.123726 3.3077 0.518572 2.34131 1.24189C2.05478 1.45634 1.4621 2.04947 1.24781 2.33621C0.338828 3.55251 -0.0885066 4.95605 0.0152489 6.38448C0.106692 7.64344 0.543079 8.77039 1.3196 9.75294C1.49871 9.97955 2.02106 10.5023 2.24749 10.6815C3.63201 11.7774 5.37533 12.216 7.09051 11.8997C8.94554 11.5577 10.5554 10.3346 11.3812 8.63991C12.1072 7.14997 12.1965 5.51639 11.6379 3.94395C11.4494 3.4133 11.0627 2.72618 10.6803 2.24233C10.5021 2.01685 9.97904 1.49307 9.75586 1.31665C8.88339 0.626843 7.86934 0.191157 6.79806 0.0458499C6.48466 0.00334453 5.77438 -0.0143054 5.48399 0.0132257ZM6.82081 0.611C9.48228 1.03218 11.441 3.31583 11.441 5.99763C11.441 9.0698 8.88923 11.5405 5.82448 11.4356C5.03846 11.4088 4.37969 11.2498 3.66639 10.915C2.39429 10.3178 1.34655 9.15984 0.874843 7.82973C0.650399 7.19684 0.570707 6.71685 0.570707 5.99763C0.570707 5.41554 0.601008 5.15168 0.723854 4.66398C1.25577 2.55212 3.06485 0.912363 5.19308 0.613042C5.33373 0.593256 5.48047 0.572438 5.51917 0.566781C5.68172 0.543005 6.58506 0.573682 6.82081 0.611ZM3.76752 2.63854C3.22614 2.85841 3.01935 2.97414 2.86681 3.14264C2.62508 3.40967 2.50648 3.74635 2.50606 4.16692C2.50578 4.43153 2.5317 4.60641 2.61268 4.88672C3.12128 6.64702 5.35106 8.87849 7.11003 9.38748C7.39012 9.46852 7.56487 9.49446 7.82928 9.49418C8.24897 9.49375 8.58704 9.37368 8.85703 9.12916C9.02113 8.98054 9.15155 8.74455 9.36286 8.21373C9.47818 7.92408 9.49443 7.86322 9.49441 7.72085C9.49439 7.52879 9.40991 7.3242 9.28035 7.2025C9.14571 7.07604 7.99561 6.42569 7.83273 6.38394C7.5716 6.317 7.26446 6.42278 7.10754 6.63374C6.87266 6.94949 6.80392 6.99561 6.59406 6.97819C6.45161 6.96636 6.3726 6.91738 6.07238 6.65481C5.71273 6.34028 5.2689 5.87038 5.09702 5.62213C5.03578 5.53369 5.02666 5.49992 5.02666 5.36179C5.02666 5.17576 5.06062 5.11601 5.23888 4.9884C5.51507 4.7907 5.6324 4.59442 5.63048 4.33331C5.62984 4.24825 5.61369 4.13641 5.59457 4.08478C5.53592 3.92623 4.87579 2.79917 4.78899 2.70935C4.65676 2.57251 4.51644 2.51414 4.29962 2.50583C4.11737 2.49884 4.10212 2.50264 3.76752 2.63854ZM4.34134 3.0657C4.3792 3.08298 4.5072 3.28191 4.74114 3.68702C4.93043 4.01479 5.08529 4.29979 5.08529 4.32037C5.08529 4.3901 5.03827 4.44613 4.90614 4.53391C4.74687 4.63972 4.58539 4.83854 4.52226 5.00659C4.42012 5.27845 4.44407 5.61326 4.58256 5.84977C4.80745 6.2338 5.72929 7.16178 6.12184 7.39928C6.5511 7.659 7.14061 7.54437 7.41885 7.14711C7.52836 6.99077 7.61004 6.91299 7.66476 6.91299C7.69236 6.91299 7.98299 7.06822 8.3106 7.25796C8.76828 7.52304 8.91231 7.61753 8.93234 7.66591C8.95499 7.72064 8.94249 7.76824 8.83653 8.0309C8.59361 8.6332 8.50301 8.76119 8.24268 8.87004C7.64611 9.11947 6.57631 8.72089 5.47226 7.83787C5.14045 7.57249 4.42629 6.85779 4.16111 6.52572C3.39436 5.56561 2.97456 4.59735 3.06684 4.00199C3.11722 3.67709 3.23467 3.49808 3.47877 3.37418C3.63149 3.29665 4.23226 3.04371 4.2692 3.04136C4.27828 3.0408 4.31074 3.05176 4.34134 3.0657Z" fill="#6C6C6C"/>
</svg>
