<svg width="20" height="20" viewBox="0 0 20 20" fill="none" xmlns="http://www.w3.org/2000/svg">
<path d="M19.91 15.9421L19.8105 15.6421C19.5747 14.9412 18.8019 14.2102 18.092 14.0176L15.4644 13.2996C14.7518 13.1058 13.7354 13.3665 13.2141 13.8879L12.2631 14.839C8.80707 13.905 6.09701 11.1943 5.1644 7.73835L6.11541 6.78716C6.63675 6.26573 6.89738 5.25045 6.70352 4.53776L5.98703 1.90841C5.79317 1.19702 5.06096 0.424094 4.36152 0.190878L4.06158 0.0900115C3.3608 -0.143205 2.36138 0.0926526 1.84008 0.614045L0.417572 2.03812C0.163441 2.29095 0.00102071 3.01412 0.00102071 3.01676C-0.0487324 7.53393 1.72218 11.886 4.91685 15.0813C8.10369 18.2687 12.4387 20.0374 16.9419 19.9994C16.9655 19.9994 17.7094 19.8396 17.9636 19.5867L19.3861 18.1639C19.9074 17.6425 20.1432 16.643 19.91 15.9421Z" fill="#00AAFF"/>
</svg>
