<svg width="16" height="16" viewBox="0 0 16 16" fill="none" xmlns="http://www.w3.org/2000/svg">
<path d="M15.928 12.7537L15.8484 12.5137C15.6598 11.9529 15.0415 11.3681 14.4736 11.2141L12.3715 10.6397C11.8015 10.4846 10.9883 10.6932 10.5712 11.1103L9.81047 11.8712C7.04566 11.124 4.87761 8.95547 4.13152 6.19068L4.89233 5.42973C5.3094 5.01258 5.5179 4.20036 5.36282 3.63021L4.78962 1.52673C4.63454 0.957618 4.04877 0.339275 3.48922 0.152702L3.24926 0.0720092C2.68864 -0.114564 1.8891 0.0741221 1.47207 0.491236L0.334058 1.63049C0.130753 1.83276 0.000816572 2.4113 0.000816572 2.41341C-0.0389859 6.02715 1.37774 9.50881 3.93348 12.0651C6.48296 14.615 9.95094 16.0299 13.5535 15.9995C13.5724 15.9995 14.1676 15.8716 14.3709 15.6693L15.5089 14.5311C15.9259 14.114 16.1145 13.3144 15.928 12.7537Z" fill="#6C6C6C"/>
</svg>
