<svg width="12" height="10" viewBox="0 0 12 10" fill="none" xmlns="http://www.w3.org/2000/svg">
<path fill-rule="evenodd" clip-rule="evenodd" d="M11.2059 0.0116234C11.1838 0.0206435 8.76994 0.942915 5.8418 2.06114C2.91366 3.17937 0.43045 4.13044 0.323517 4.17463C0.106538 4.26432 0.0246009 4.35126 0.0025812 4.51522C-0.014128 4.63953 0.051958 4.79241 0.152428 4.86187C0.191184 4.88864 0.853277 5.1242 1.62373 5.38536L3.02457 5.86018L6.30277 3.86008C8.10576 2.76 9.60042 1.85488 9.62423 1.84867C9.68184 1.83363 9.73962 1.9067 9.71778 1.96695C9.70818 1.99342 8.58434 3.03831 7.22038 4.28895C5.83711 5.55727 4.73561 6.58704 4.72953 6.61758C4.71601 6.68551 4.55358 9.02177 4.55407 9.14149C4.55455 9.2587 4.63539 9.33555 4.75817 9.33555C4.84856 9.33555 4.90453 9.28654 5.64467 8.55899L6.43467 7.78243L6.65455 7.95212C7.52681 8.62547 9.22914 9.89476 9.32631 9.94431C9.61769 10.0928 9.94155 9.93371 10.038 9.59472C10.0597 9.51844 10.5133 7.48067 11.046 5.06639C11.8011 1.64407 12.0112 0.651622 11.9995 0.562572C11.9719 0.350854 11.8421 0.167508 11.6504 0.0691164C11.5448 0.014969 11.2814 -0.0191306 11.2059 0.0116234Z" fill="#6C6C6C"/>
</svg>
