<svg width="16" height="12" viewBox="0 0 16 12" fill="none" xmlns="http://www.w3.org/2000/svg">
<path fill-rule="evenodd" clip-rule="evenodd" d="M14.9412 0.013948C14.9117 0.0247722 11.6933 1.1315 7.78907 2.47337C3.88488 3.81524 0.573934 4.95653 0.431355 5.00955C0.14205 5.11719 0.0328012 5.22151 0.0034416 5.41827C-0.0188374 5.56743 0.0692773 5.75089 0.203237 5.83424C0.254912 5.86636 1.1377 6.14904 2.16497 6.46243L4.03276 7.03222L8.40369 4.63209C10.8077 3.312 12.8006 2.22586 12.8323 2.21841C12.9091 2.20036 12.9862 2.28804 12.957 2.36034C12.9442 2.39211 11.4458 3.64597 9.62718 5.14673C7.78281 6.66873 6.31415 7.90445 6.30603 7.94109C6.28801 8.02261 6.07144 10.8261 6.07209 10.9698C6.07273 11.1104 6.18051 11.2027 6.34423 11.2027C6.46474 11.2027 6.53937 11.1438 7.52623 10.2708L8.57956 9.33891L8.87273 9.54255C10.0357 10.3506 12.3055 11.8737 12.4351 11.9332C12.8236 12.1113 13.2554 11.9205 13.384 11.5137C13.413 11.4221 14.0178 8.9768 14.728 6.07967C15.7348 1.97289 16.0149 0.781947 15.9994 0.675087C15.9625 0.421025 15.7895 0.201009 15.5339 0.0829396C15.3931 0.0179628 15.0419 -0.0229568 14.9412 0.013948Z" fill="#6C6C6C"/>
</svg>
