<svg width="10" height="8" viewBox="0 0 10 8" fill="none" xmlns="http://www.w3.org/2000/svg">
<path fill-rule="evenodd" clip-rule="evenodd" d="M9.33827 0.00929869C9.31983 0.0165148 7.30829 0.754332 4.86817 1.64891C2.42805 2.54349 0.358709 3.30435 0.269597 3.3397C0.0887816 3.41146 0.0205008 3.48101 0.002151 3.61218C-0.0117734 3.71162 0.0432983 3.83393 0.127023 3.8895C0.15932 3.91091 0.711065 4.09936 1.35311 4.30829L2.52047 4.68815L5.25231 3.08806C6.7548 2.208 8.00035 1.48391 8.0202 1.47894C8.0682 1.4669 8.11635 1.52536 8.09815 1.57356C8.09015 1.59474 7.15362 2.43065 6.01699 3.43116C4.86426 4.44582 3.94635 5.26963 3.94127 5.29406C3.93001 5.34841 3.79465 7.21742 3.79505 7.31319C3.79546 7.40696 3.86282 7.46844 3.96514 7.46844C4.04046 7.46844 4.08711 7.42923 4.70389 6.84719L5.36223 6.22594L5.54546 6.3617C6.27234 6.90038 7.69095 7.91581 7.77193 7.95545C8.01474 8.0742 8.28462 7.94697 8.36502 7.67578C8.38312 7.61475 8.76111 5.98454 9.20502 4.05311C9.83423 1.31526 10.0093 0.521298 9.99962 0.450058C9.97656 0.280683 9.86845 0.134006 9.70866 0.0552931C9.62069 0.0119752 9.40117 -0.0153045 9.33827 0.00929869Z" fill="white"/>
</svg>
