<svg width="10" height="10" viewBox="0 0 10 10" fill="none" xmlns="http://www.w3.org/2000/svg">
<path fill-rule="evenodd" clip-rule="evenodd" d="M4.65465 0.00609525C4.18001 0.0551096 3.85174 0.118942 3.49721 0.231186C1.66102 0.812407 0.344049 2.35932 0.0468631 4.28391C-0.00811586 4.64011 -0.00869722 5.34042 0.0457004 5.69199C0.129812 6.23541 0.269529 6.69286 0.492865 7.15594L0.632984 7.44649L0.389547 8.41873C0.255644 8.95347 0.113221 9.528 0.0730437 9.6955L0 10L0.125027 9.97054C0.193801 9.95434 0.772835 9.81413 1.41177 9.65896L2.57346 9.37685L2.85387 9.51091C3.31969 9.73363 3.78313 9.87468 4.3081 9.95349C4.62199 10.0006 5.31762 10.0062 5.62723 9.96415C7.7239 9.67927 9.40035 8.16599 9.87472 6.1301C10.0045 5.57331 10.037 4.83483 9.95557 4.29509C9.8207 3.4011 9.46771 2.57874 8.92145 1.88594C8.75808 1.67873 8.32277 1.24357 8.11548 1.08025C7.42745 0.538146 6.5928 0.177813 5.72785 0.049522C5.48843 0.0140072 4.83435 -0.0124556 4.65465 0.00609525ZM3.49884 2.7083C3.69106 2.76648 3.75654 2.85188 3.97009 3.32294C4.23613 3.90975 4.23566 3.99164 3.96436 4.30626C3.80631 4.48958 3.77915 4.56307 3.82713 4.67782C3.87871 4.80123 4.12827 5.16537 4.28062 5.3395C4.6045 5.70971 5.04994 6.02018 5.44079 6.14818C5.61038 6.20372 5.68063 6.16801 5.82627 5.95228C5.99026 5.70933 6.06309 5.66029 6.27388 5.65093L6.44331 5.6434L6.84576 5.84406C7.33862 6.0898 7.3896 6.13287 7.43651 6.34301C7.49645 6.61175 7.23571 7.0742 6.93137 7.23883C6.72862 7.34855 6.58419 7.37618 6.29821 7.36C5.60398 7.32073 4.94915 7.05216 4.25308 6.52119C3.66286 6.07098 2.88339 5.18973 2.62139 4.67643C2.47533 4.3903 2.42106 4.16903 2.42102 3.85926C2.42093 3.46419 2.51521 3.18345 2.74103 2.90628C2.89749 2.71422 3.03764 2.64449 3.2349 2.66058C3.31483 2.66709 3.4336 2.68857 3.49884 2.7083Z" fill="white"/>
</svg>
