<svg width="16" height="16" viewBox="0 0 16 16" fill="none" xmlns="http://www.w3.org/2000/svg">
<path fill-rule="evenodd" clip-rule="evenodd" d="M7.44744 0.00975241C6.68801 0.0881754 6.16279 0.190308 5.59554 0.369897C2.65763 1.29985 0.550478 3.77492 0.0749809 6.85426C-0.0129854 7.42418 -0.0139155 8.54467 0.0731206 9.10718C0.207699 9.97666 0.431246 10.7086 0.788585 11.4495L1.01277 11.9144L0.623275 13.47C0.40903 14.3255 0.181154 15.2448 0.11687 15.5128L0 16L0.200043 15.9529C0.310081 15.9269 1.23654 15.7026 2.25883 15.4543L4.11753 15.003L4.5662 15.2175C5.3115 15.5738 6.053 15.7995 6.89296 15.9256C7.39518 16.001 8.50819 16.01 9.00357 15.9426C12.3582 15.4868 15.0406 13.0656 15.7996 9.80816C16.0071 8.91729 16.0592 7.73572 15.9289 6.87214C15.7131 5.44175 15.1483 4.12598 14.2743 3.01751C14.0129 2.68597 13.3164 1.98971 12.9848 1.72841C11.8839 0.861034 10.5485 0.284501 9.16455 0.0792352C8.78149 0.0224116 7.73495 -0.0199289 7.44744 0.00975241ZM5.59815 4.33328C5.90569 4.42637 6.01047 4.56301 6.35214 5.3167C6.7778 6.25559 6.77705 6.38662 6.34298 6.89002C6.0901 7.18333 6.04664 7.30091 6.1234 7.48451C6.20593 7.68198 6.60523 8.26459 6.84899 8.5432C7.3672 9.13554 8.07991 9.63229 8.70526 9.83709C8.9766 9.92595 9.089 9.86881 9.32203 9.52365C9.58442 9.13493 9.70094 9.05647 10.0382 9.04149L10.3093 9.02944L10.9532 9.35049C11.7418 9.74368 11.8234 9.81259 11.8984 10.1488C11.9943 10.5788 11.5771 11.3187 11.0902 11.5821C10.7658 11.7577 10.5347 11.8019 10.0771 11.776C8.96637 11.7132 7.91865 11.2835 6.80492 10.4339C5.86058 9.71357 4.61342 8.30357 4.19423 7.48229C3.96052 7.02448 3.8737 6.67045 3.87363 6.17481C3.87349 5.54271 4.02434 5.09352 4.38565 4.65005C4.63599 4.34276 4.86022 4.23118 5.17584 4.25693C5.30373 4.26734 5.49376 4.3017 5.59815 4.33328Z" fill="#6C6C6C"/>
</svg>
