<svg width="12" height="12" viewBox="0 0 12 12" fill="none" xmlns="http://www.w3.org/2000/svg">
<path fill-rule="evenodd" clip-rule="evenodd" d="M5.58558 0.00731431C5.01601 0.0661316 4.62209 0.142731 4.19665 0.277423C1.99322 0.974889 0.412859 2.83119 0.0562357 5.1407C-0.00973903 5.56813 -0.0104367 6.4085 0.0548405 6.83038C0.155775 7.4825 0.323435 8.03143 0.591438 8.58712L0.759581 8.93579L0.467457 10.1025C0.306772 10.7442 0.135866 11.4336 0.0876524 11.6346L0 12L0.150032 11.9647C0.232561 11.9452 0.927402 11.777 1.69412 11.5907L3.08815 11.2522L3.42465 11.4131C3.98362 11.6804 4.53975 11.8496 5.16972 11.9442C5.54638 12.0007 6.38114 12.0075 6.75268 11.957C9.26868 11.6151 11.2804 9.79919 11.8497 7.35612C12.0054 6.68797 12.0444 5.80179 11.9467 5.15411C11.7848 4.08131 11.3613 3.09448 10.7057 2.26313C10.5097 2.01448 9.98732 1.49228 9.73858 1.29631C8.91294 0.645775 7.91136 0.213376 6.87342 0.0594264C6.58612 0.0168087 5.80121 -0.0149467 5.58558 0.00731431ZM4.19861 3.24996C4.42927 3.31977 4.50785 3.42226 4.7641 3.98752C5.08335 4.69169 5.08279 4.78996 4.75724 5.16752C4.56757 5.3875 4.53498 5.47568 4.59255 5.61338C4.65445 5.76148 4.95393 6.19844 5.13674 6.4074C5.5254 6.85165 6.05993 7.22422 6.52895 7.37782C6.73245 7.44447 6.81675 7.40161 6.99152 7.14274C7.18832 6.8512 7.2757 6.79235 7.52866 6.78112L7.73197 6.77208L8.21491 7.01287C8.80635 7.30776 8.86752 7.35944 8.92381 7.61161C8.99574 7.9341 8.68285 8.48904 8.31764 8.6866C8.07435 8.81826 7.90103 8.85141 7.55785 8.832C6.72478 8.78487 5.93899 8.4626 5.10369 7.82542C4.39543 7.28518 3.46006 6.22767 3.14567 5.61172C2.97039 5.26836 2.90528 5.00284 2.90522 4.63111C2.90512 4.15703 3.01826 3.82014 3.28924 3.48754C3.47699 3.25707 3.64516 3.17339 3.88188 3.1927C3.9778 3.2005 4.12032 3.22628 4.19861 3.24996Z" fill="#6C6C6C"/>
</svg>
