<svg width="25" height="25" viewBox="0 0 25 25" fill="none" xmlns="http://www.w3.org/2000/svg">
<path fill-rule="evenodd" clip-rule="evenodd" d="M12.1673 3.59135C5.73245 5.56526 0.412615 7.21988 0.345446 7.26828C-0.136563 7.61559 -0.098753 8.24766 0.420627 8.52499C0.527023 8.58179 2.52277 9.21787 4.85553 9.93847C8.57301 11.0868 9.10934 11.2409 9.19757 11.1858C9.39028 11.0655 23.7213 0.230916 23.8415 0.114689C23.9081 0.0503247 23.941 -0.00129383 23.9147 2.47097e-05C23.8885 0.00134325 18.6021 1.61744 12.1673 3.59135ZM24.8826 1.18207C24.7671 1.30836 13.9182 15.6579 13.8232 15.81C13.7681 15.8982 13.9223 16.4344 15.071 20.1506C15.7918 22.4827 16.4281 24.4778 16.4849 24.5841C16.7623 25.1033 17.3946 25.1411 17.742 24.6593C17.825 24.5442 25.0362 1.12572 24.9999 1.08939C24.9905 1.08006 24.9377 1.12176 24.8826 1.18207ZM14.9029 8.69343C11.7728 11.058 9.1856 13.03 9.15355 13.0756C9.12146 13.1213 8.84921 13.8179 8.54849 14.6237C8.18592 15.5952 8.00122 16.1564 8.00024 16.2896C7.99731 16.6782 8.32993 17.0098 8.7202 17.0071C8.93705 17.0057 11.8879 15.9293 11.995 15.8125C12.0282 15.7764 13.9633 13.2197 16.2953 10.1309C18.6273 7.04207 20.5567 4.48742 20.5828 4.45382C20.609 4.42027 20.6222 4.39312 20.6122 4.39356C20.6022 4.39395 18.033 6.32894 14.9029 8.69343ZM5.15723 14.7239C4.95352 14.8283 0.508411 19.2764 0.418526 19.4657C0.187609 19.952 0.534058 20.5077 1.06843 20.5081C1.18392 20.5082 1.3378 20.4768 1.41039 20.4382C1.56964 20.3536 6.07684 15.8408 6.15359 15.6891C6.18324 15.6304 6.20752 15.4982 6.20752 15.3953C6.20752 14.8638 5.61858 14.4873 5.15723 14.7239ZM5.54804 18.4644C5.39592 18.5469 0.152535 23.7881 0.073592 23.9365C-0.0953823 24.2543 0.0380287 24.7091 0.357219 24.9037C0.533716 25.0113 0.875182 25.0329 1.04479 24.9472C1.19642 24.8705 6.44347 19.6324 6.52822 19.473C6.6972 19.1552 6.56379 18.7004 6.2446 18.5058C6.06898 18.3987 5.70851 18.3773 5.54804 18.4644ZM9.30953 18.8551C9.15736 18.9376 4.64674 23.4463 4.56785 23.5947C4.52931 23.6672 4.49785 23.8211 4.49794 23.9365C4.49838 24.4532 5.01107 24.7939 5.50822 24.6078C5.6834 24.5423 10.188 20.0498 10.2864 19.8425C10.5134 19.3643 10.1413 18.7965 9.60342 18.8006C9.49551 18.8014 9.36327 18.8259 9.30953 18.8551Z" fill="#00AAFF"/>
</svg>
