<svg width="31" height="24" viewBox="0 0 31 24" fill="none" xmlns="http://www.w3.org/2000/svg">
<path fill-rule="evenodd" clip-rule="evenodd" d="M14.6128 0.0619588C14.3718 0.113965 14.0448 0.229835 13.8863 0.319431C13.7277 0.409095 10.6086 2.17071 6.95487 4.23412C3.30116 6.2976 0.241669 8.06137 0.15607 8.15366C-0.0269611 8.35084 -0.05298 8.75908 0.0991193 9.04538C0.16645 9.17223 0.501442 9.40296 1.1544 9.77232C11.5875 15.6738 13.9324 16.9885 14.2538 17.1173C14.7907 17.3323 15.5924 17.3308 16.1347 17.1136C16.3501 17.0273 19.2772 15.4011 22.6394 13.4997C30.5968 8.99951 30.198 9.23273 30.2959 9.02349C30.4316 8.73361 30.3989 8.34336 30.223 8.15252C30.0203 7.93263 16.5424 0.308181 16.0891 0.157012C15.5754 -0.014299 15.1062 -0.0445464 14.6128 0.0619588ZM29.2023 11.6086L28.2682 12.1396L28.2502 15.6596L28.2323 19.1797L27.959 19.4683C27.6 19.8476 27.472 20.1636 27.4739 20.6669C27.4776 21.6647 28.2212 22.3911 29.2407 22.3927C30.2351 22.3942 30.9963 21.6497 31 20.6719C31.0018 20.1966 30.7709 19.6705 30.4425 19.4015L30.2403 19.2359V15.1559C30.2403 12.9119 30.217 11.0763 30.1884 11.0769C30.1598 11.0773 29.7161 11.3167 29.2023 11.6086ZM4.99668 16.1392L5.0173 18.5198L5.21161 18.905C5.56376 19.6032 5.76582 19.7443 9.09021 21.6131C13.059 23.8441 13.2763 23.9327 14.9195 23.9915C16.0534 24.0322 16.7195 23.9313 17.6115 23.5837C18.4622 23.2523 24.2994 19.9476 24.6681 19.5887C24.8351 19.4261 25.0595 19.1191 25.1668 18.9064L25.3618 18.5198L25.3824 16.1366L25.403 13.7534L25.1748 13.8845C25.0493 13.9565 23.1609 15.0256 20.9783 16.26C16.4553 18.8183 16.4078 18.8396 15.1895 18.8431C13.9869 18.8465 13.8836 18.7999 9.16924 16.1316C6.92373 14.8607 5.06166 13.8068 5.03128 13.7897C5.0009 13.7726 4.98533 14.8299 4.99668 16.1392Z" fill="#965EEB"/>
</svg>
