<svg width="25" height="25" viewBox="0 0 25 25" fill="none" xmlns="http://www.w3.org/2000/svg">
<path fill-rule="evenodd" clip-rule="evenodd" d="M9.15576 0.103918C6.90559 0.452204 4.96288 1.40184 3.34039 2.94658C0.310246 5.83155 -0.766691 10.1506 0.557443 14.1076C1.88705 18.081 5.35825 20.8808 9.56998 21.3769C10.6333 21.5022 12.2085 21.3944 13.2851 21.1227C14.3228 20.8608 15.5734 20.3212 16.4574 19.7538L16.9191 19.4575L19.5786 22.1102C22.0735 24.5987 22.2581 24.7701 22.561 24.8812C24.0318 25.4206 25.4204 24.0313 24.8813 22.5598C24.7702 22.2568 24.5989 22.0721 22.1116 19.576L19.4602 16.9153L19.7401 16.4783C20.4963 15.2976 21.0253 13.9373 21.2991 12.4691C21.4151 11.8472 21.459 10.2449 21.3787 9.56257C21.1918 7.97491 20.686 6.47783 19.9019 5.19113C18.1524 2.32067 15.2808 0.465935 11.9466 0.0530147C11.2367 -0.0348941 9.8945 -0.0104471 9.15576 0.103918ZM11.5547 1.83742C12.7407 1.96038 13.6208 2.2168 14.7067 2.75586C17.0878 3.9378 18.8719 6.2356 19.4231 8.83033C19.6902 10.0879 19.6896 11.3139 19.4214 12.5933C18.7177 15.9485 16.0018 18.6755 12.6219 19.4204C11.0938 19.7572 9.40334 19.6644 7.86799 19.1595C7.23736 18.9522 6.14369 18.3931 5.57856 17.9891C3.79177 16.7121 2.4924 14.7535 2.01776 12.6218C1.83003 11.7785 1.76442 10.8222 1.83879 10.0136C1.95583 8.74024 2.20521 7.8558 2.76727 6.72018C3.9511 4.32817 6.25722 2.54248 8.8666 1.99728C9.85205 1.79138 10.6519 1.74382 11.5547 1.83742ZM8.68155 3.67212C8.14448 3.92011 8.03999 4.1931 8.03999 5.34808V6.24012L6.71044 6.25686L5.3809 6.27366L5.10804 6.44256C4.93928 6.54704 4.77069 6.71566 4.66625 6.8845L4.49743 7.1575L4.48025 8.26442L4.46301 9.3714H10.7178H16.9726L16.9554 8.26442L16.9382 7.1575L16.7694 6.8845C16.665 6.71566 16.4964 6.54704 16.3276 6.44256L16.0548 6.27366L14.7252 6.25686L13.3957 6.24012L13.3944 5.33591C13.3931 4.35602 13.3398 4.12556 13.0536 3.86234C12.7471 3.58047 12.6362 3.56652 10.7057 3.56786C9.07408 3.56898 8.88373 3.5788 8.68155 3.67212ZM12.0567 5.57597V6.24576H10.7178H9.37891V5.57597V4.90619H10.7178H12.0567V5.57597ZM4.48126 12.4876L4.49743 14.2643L4.66625 14.5373C4.77085 14.7065 4.93905 14.8747 5.1082 14.9794L5.38129 15.1483H10.7178H16.0544L16.3274 14.9794C16.4966 14.8747 16.6648 14.7065 16.7694 14.5373L16.9382 14.2643L16.9544 12.4876L16.9706 10.711H10.7178H4.46508L4.48126 12.4876Z" fill="#FF4053"/>
</svg>
