<svg width="25" height="25" viewBox="0 0 25 25" fill="none" xmlns="http://www.w3.org/2000/svg">
<path fill-rule="evenodd" clip-rule="evenodd" d="M6.25424 3.62551C1.49487 6.48837 0.203502 7.28593 0.1152 7.41694C-0.118449 7.76362 0.0174715 8.26978 0.3951 8.45942C0.802373 8.66402 0.442083 8.8565 6.69644 5.09329C9.85163 3.19489 12.4661 1.64161 12.5064 1.64161C12.5466 1.64161 15.1611 3.19489 18.3163 5.09329C23.6728 8.31626 24.0676 8.54497 24.2747 8.54478C24.5403 8.54458 24.774 8.41553 24.9148 8.19141C25.0422 7.98857 25.024 7.57968 24.8788 7.3833C24.8195 7.30312 22.4083 5.82323 18.7561 3.62551C13.0981 0.220753 12.7176 0 12.5064 0C12.2951 0 11.9139 0.221095 6.25424 3.62551ZM8.20847 6.66757C8.03386 6.70497 7.68656 6.83656 7.4367 6.96005C6.67109 7.33837 6.06802 8.02236 5.78651 8.83159C5.16693 10.6128 6.12428 12.5194 7.93985 13.1201C8.4888 13.3017 9.32909 13.3114 9.86779 13.1423C10.5639 12.9238 11.1191 12.555 11.5182 12.046C12.0565 11.3595 12.2666 10.7662 12.2666 9.93258C12.2666 9.37842 12.1647 8.92095 11.9399 8.46563C11.26 7.08837 9.71658 6.34467 8.20847 6.66757ZM13.3471 11.3407C13.1055 11.4181 12.7509 11.7572 12.6219 12.0343L12.5073 12.2803L12.5068 14.8807L12.5064 17.4811L17.1583 17.4686L21.8103 17.4562L21.823 14.9433C21.8371 12.1422 21.8332 12.101 21.519 11.734C21.4239 11.623 21.2319 11.4753 21.0924 11.4057L20.8387 11.2794L17.1732 11.2843C14.7551 11.2876 13.453 11.3068 13.3471 11.3407ZM4.95277 13.5377C3.92909 14.5055 3.24846 15.9166 3.16875 17.2364L3.15547 17.4562L7.09834 17.4687L11.0412 17.4812V15.8643C11.0412 14.3431 11.0361 14.2496 10.9557 14.2839C10.2126 14.6006 9.54672 14.7193 8.71019 14.6842C7.52598 14.6344 6.51627 14.2164 5.69059 13.434C5.54534 13.2963 5.40414 13.1837 5.37684 13.1837C5.34954 13.1837 5.15872 13.3429 4.95277 13.5377ZM1.93765 19.0072C1.57912 19.2128 1.45521 19.694 1.67631 20.022C1.85208 20.2827 2.06273 20.3768 2.52514 20.4011L2.93076 20.4224L2.94448 22.488C2.95776 24.4892 2.96138 24.558 3.05935 24.6915C3.11498 24.7672 3.23586 24.8677 3.32797 24.9146C3.48562 24.995 4.02398 25 12.5064 25C20.9887 25 21.5271 24.995 21.6847 24.9146C21.7768 24.8677 21.8977 24.7672 21.9534 24.6915C22.0513 24.558 22.0549 24.4892 22.0682 22.488L22.082 20.4224L22.4876 20.4011C22.95 20.3768 23.1606 20.2827 23.3364 20.022C23.5575 19.694 23.4336 19.2128 23.0751 19.0072L22.8848 18.8982H12.5064H2.12793L1.93765 19.0072Z" fill="#FF00B8"/>
</svg>
