<svg width="25" height="24" viewBox="0 0 25 24" fill="none" xmlns="http://www.w3.org/2000/svg">
<path fill-rule="evenodd" clip-rule="evenodd" d="M21.1404 0.0920893C20.9851 0.224357 20.1332 1.63512 20.1332 1.7599C20.1332 1.80586 20.181 1.90192 20.2394 1.9733C20.3502 2.10877 20.5274 2.14099 20.6929 2.05581C20.8097 1.99572 21.7213 0.476923 21.7213 0.342487C21.7213 0.205884 21.5706 0.044798 21.4083 0.00799936C21.3107 -0.0141685 21.2385 0.00844271 21.1404 0.0920893ZM3.26793 0.415887C3.2251 0.463277 3.17602 0.590225 3.15886 0.69801C3.06547 1.28423 2.36496 1.5599 1.83914 1.21728C1.71516 1.13649 1.58509 1.06999 1.55005 1.06949C1.46409 1.06831 0.768186 1.73384 0.769365 1.81611C0.769877 1.85202 0.839037 1.97897 0.923053 2.09818C1.28402 2.6104 0.985912 3.28953 0.364959 3.36963C0.0618341 3.40874 0 3.51544 0 3.99969C0 4.47403 0.0738729 4.61502 0.323104 4.61625C0.413063 4.61669 0.576486 4.66659 0.68627 4.72709C1.09723 4.95369 1.20492 5.48725 0.922131 5.89627C0.837859 6.01819 0.768801 6.14189 0.768647 6.1712C0.768391 6.23465 1.50528 6.93077 1.57269 6.93077C1.59841 6.93077 1.69826 6.87486 1.79452 6.80653C2.13714 6.56352 2.46014 6.5448 2.81086 6.74766C2.99662 6.8551 3.17326 7.16348 3.1751 7.38363C3.1769 7.59772 3.34114 7.6697 3.82802 7.6697C4.30128 7.6697 4.45697 7.58925 4.45697 7.34462C4.45697 7.16767 4.59831 6.89801 4.7519 6.7818C5.0645 6.54534 5.46168 6.55539 5.84278 6.80934C5.99119 6.90826 6.05866 6.92722 6.13053 6.89018C6.25067 6.8283 6.86475 6.2146 6.86475 6.15642C6.86475 6.13223 6.80661 6.03666 6.73555 5.9441C6.47561 5.60528 6.46557 5.19769 6.70984 4.89906C6.83069 4.75137 7.11112 4.61546 7.29513 4.61546C7.54954 4.61546 7.6332 4.46575 7.6332 4.01067C7.6332 3.54431 7.55794 3.38391 7.33909 3.38391C7.1271 3.38391 6.77551 3.1949 6.66834 3.02327C6.46363 2.69548 6.48545 2.38129 6.73555 2.05527C6.80661 1.96271 6.86475 1.8667 6.86475 1.84197C6.86475 1.7695 6.13683 1.06861 6.06158 1.06861C6.02387 1.06861 5.89749 1.13511 5.78079 1.21639C5.52336 1.39571 5.15102 1.41866 4.86598 1.27285C4.65492 1.16482 4.45902 0.861264 4.45779 0.640374C4.45651 0.396725 4.31183 0.329679 3.7875 0.329679C3.43064 0.329679 3.33084 0.346231 3.26793 0.415887ZM16.0983 0.592491C15.8459 0.680522 15.5864 0.901067 15.4631 1.1324C15.3234 1.39447 15.3149 1.81128 15.4443 2.05384C15.5269 2.20853 19.185 8.31714 19.8577 9.42366C20.1997 9.98618 20.3866 10.1642 20.7384 10.2625C21.0429 10.3477 21.2765 10.3251 21.5652 10.1827C22.0057 9.9655 22.2665 9.42396 22.1412 8.98725C22.113 8.88907 21.0368 7.05057 19.7497 4.90172C18.087 2.12577 17.3526 0.943827 17.2128 0.818899C16.9087 0.547269 16.4785 0.459878 16.0983 0.592491ZM23.1814 2.55282C22.3171 3.03376 22.2848 3.05938 22.2848 3.2648C22.2848 3.43529 22.4733 3.63037 22.6376 3.63008C22.7383 3.62983 24.1087 2.87489 24.27 2.7308C24.3334 2.67415 24.3852 2.57922 24.3852 2.51991C24.3852 2.35267 24.1943 2.15227 24.0357 2.15306C23.9583 2.1534 23.5863 2.32744 23.1814 2.55282ZM4.55164 2.42439C5.29857 2.75218 5.73617 3.54254 5.58468 4.29014C5.43463 5.03064 4.8917 5.55306 4.12059 5.69893C2.87193 5.93519 1.75379 4.77906 2.07044 3.57919C2.34821 2.52661 3.53058 1.97636 4.55164 2.42439ZM14.9846 3.39529C14.3032 4.4129 13.1267 5.63129 11.8184 6.67456C11.5314 6.90338 11.4274 7.01579 11.4498 7.07289C11.467 7.11663 11.9686 7.96497 12.5647 8.95809L13.6483 10.7637L13.9066 10.6656C15.4355 10.0852 16.9185 9.74451 18.7387 9.55569L19.1117 9.51701L17.1895 6.31514C16.1323 4.55413 15.2498 3.1079 15.2284 3.1013C15.2071 3.0947 15.0973 3.22697 14.9846 3.39529ZM19.758 3.51938C19.7338 3.55894 20.9076 5.54873 20.9562 5.55045C21.0334 5.55311 21.2199 5.12527 21.2454 4.8868C21.2893 4.47817 21.1856 4.19723 20.879 3.89506C20.6819 3.70062 20.5533 3.62072 20.3416 3.56096C20.044 3.47697 19.7949 3.45924 19.758 3.51938ZM22.6443 5.58626C22.5167 5.74223 22.5391 5.92341 22.7025 6.05637C22.7954 6.13199 22.9301 6.14258 23.7981 6.14258H24.7877L24.8938 6.01277C24.9522 5.94139 25 5.84464 25 5.79774C25 5.75085 24.9522 5.6541 24.8938 5.58272L24.7877 5.45291H23.7705H22.7533L22.6443 5.58626ZM9.68238 7.7859C9.10359 8.10852 8.56311 8.44877 8.39734 8.59483C7.40886 9.46618 7.38012 10.9667 8.33427 11.8876C9.05512 12.5833 10.1645 12.7595 11.0884 12.325C11.6112 12.0791 13.0899 11.2439 13.085 11.1973C13.0788 11.1376 10.7366 7.22934 10.707 7.22925C10.6929 7.22915 10.2318 7.47969 9.68238 7.7859ZM6.50615 9.86411C5.10323 10.1098 3.63412 10.6652 2.56808 11.3528C2.03776 11.6948 1.27403 12.3858 0.922951 12.8412C0.241086 13.7256 -0.0910861 14.8616 0.0484631 15.8319C0.276025 17.414 1.47259 18.8427 3.37874 19.8084L3.87351 20.0591L3.44974 21.8078C3.21665 22.7697 3.02515 23.6041 3.02423 23.6622C3.02244 23.7748 3.14662 23.8495 3.24488 23.7949C3.27756 23.7767 4.22935 23.1423 5.35994 22.3849L7.41557 21.008L8.84354 20.9973C10.1832 20.9874 10.6799 20.9478 11.3601 20.797C11.4738 20.7718 11.4754 20.7603 11.4754 19.9826C11.4754 19.1224 11.5154 18.9482 11.7727 18.6875C11.8487 18.6106 12.0031 18.4997 12.1158 18.4412C12.3144 18.3381 12.3831 18.3344 14.3549 18.3205L16.3891 18.306L16.6988 17.9108C17.0731 17.4332 17.3794 16.8405 17.525 16.3125C17.674 15.7719 17.6744 14.9411 17.526 14.3939C17.3926 13.9025 17.0406 13.2149 16.7029 12.7863C16.3531 12.3424 15.6783 11.7374 15.1428 11.3876L14.7002 11.0985L14.4171 11.191C14.2614 11.2419 14.1241 11.299 14.112 11.3178C14.0999 11.3365 14.6013 12.0142 15.2261 12.8237C15.851 13.6331 16.4151 14.3841 16.4797 14.4925C16.6288 14.7428 16.6391 15.1903 16.5023 15.4777C16.3985 15.6958 15.6765 16.3847 15.416 16.5142C15.3246 16.5597 15.116 16.6086 14.9526 16.6228C14.6996 16.6449 14.6129 16.6287 14.3689 16.5139C14.1039 16.3892 14.0241 16.3047 13.3158 15.3988L12.5493 14.4186H8.4752H4.40108L4.27536 14.2976C4.2062 14.2311 4.14959 14.1304 4.14959 14.0737C4.14959 14.0171 4.2062 13.9163 4.27536 13.8498L4.40108 13.7289H8.19442C10.2807 13.7289 11.9877 13.7171 11.9877 13.7027C11.9877 13.6883 11.8573 13.5099 11.698 13.3063C11.4858 13.0353 11.3863 12.9447 11.3265 12.9681C10.79 13.1784 10.665 13.2021 10.0666 13.2068C9.31296 13.2127 8.88227 13.0959 8.31634 12.7319C7.4313 12.1627 6.95492 11.291 6.95651 10.2436C6.95692 9.99298 6.94216 9.78993 6.92382 9.79239C6.90543 9.7948 6.71747 9.82707 6.50615 9.86411ZM23.0277 11.1646C22.8749 11.2247 22.7855 11.3396 22.4695 11.8812C22.073 12.5611 22.0844 12.7881 22.5281 13.043C23.0791 13.3596 23.1231 13.556 22.8028 14.2703C22.5591 14.8138 22.2745 15.2802 21.8766 15.7879C21.4472 16.3359 21.233 16.4048 20.7736 16.1427C20.4373 15.951 20.1887 15.9471 19.9823 16.1304C19.7612 16.3269 19.2623 17.1886 19.2623 17.3741C19.2623 17.6267 19.3879 17.7895 19.7102 17.9547C20.6903 18.4571 21.7728 18.094 22.8504 16.9017C24.0199 15.6076 24.7908 13.7101 24.5927 12.6128C24.5124 12.1675 24.3902 11.9134 24.1219 11.6335C23.7394 11.2345 23.3136 11.0521 23.0277 11.1646ZM12.7818 12.1749C12.3434 12.4242 12.071 12.6086 12.081 12.6491C12.0901 12.6856 12.6433 13.4192 13.3105 14.2794C14.1306 15.3367 14.5734 15.8666 14.6773 15.9151C14.9246 16.0306 15.0847 15.9631 15.5249 15.5577C16.0681 15.0575 16.0678 15.0489 15.4841 14.2832C14.2515 12.6664 13.5477 11.7616 13.5246 11.7641C13.5105 11.7657 13.1762 11.9505 12.7818 12.1749ZM13.3988 16.4115C13.5499 16.5567 13.5582 16.6831 13.4266 16.8392L13.3287 16.9556H8.83709H4.34544L4.24754 16.8392C4.11598 16.6831 4.12423 16.5567 4.27536 16.4115L4.40108 16.2905H8.83709H13.2731L13.3988 16.4115ZM12.3108 19.1188L12.167 19.2377L12.1527 21.4563L12.1384 23.675L12.2893 23.8375L12.4404 24H15.4915H18.5428L18.6848 23.8634L18.8268 23.7269L18.8424 21.6467C18.8509 20.5026 18.8436 19.4919 18.8262 19.4008C18.8087 19.3097 18.7394 19.1823 18.6721 19.1176L18.5497 18.9999H15.5021H12.4545L12.3108 19.1188ZM15.4755 20.9334C15.93 21.184 16.314 21.4185 16.329 21.4545C16.344 21.4905 16.3242 21.5499 16.2852 21.5865C16.1503 21.7128 14.6967 22.4975 14.5974 22.4975C14.5023 22.4975 14.498 22.455 14.498 21.5205C14.498 20.5928 14.51 20.4778 14.6078 20.4778C14.6306 20.4778 15.0211 20.6829 15.4755 20.9334Z" fill="#FF6B00"/>
</svg>
