<svg width="19" height="25" viewBox="0 0 19 25" fill="none" xmlns="http://www.w3.org/2000/svg">
<path fill-rule="evenodd" clip-rule="evenodd" d="M2.63594 0.0849356C2.26825 0.182942 1.95262 0.441276 1.76881 0.794754C1.62933 1.06307 1.62119 1.13036 1.62119 2.01505V2.95143H9.49133H17.3615V2.01505C17.3615 1.12551 17.3539 1.06424 17.2109 0.789088C17.0223 0.426324 16.6614 0.148716 16.2705 0.0656613C15.8048 -0.0332799 3.01182 -0.0151737 2.63594 0.0849356ZM11.1152 1.19659C11.1948 1.27544 11.2599 1.40803 11.2599 1.49126C11.2599 1.57448 11.1948 1.70707 11.1152 1.78592L10.9705 1.92931H9.50194C8.10554 1.92931 8.02578 1.92335 7.8781 1.80823C7.67501 1.65 7.67053 1.39167 7.86749 1.19659L8.01216 1.0532H9.49133H10.9705L11.1152 1.19659ZM1.34948 4.86425C0.954557 5.41841 0.56895 5.95541 0.492606 6.05768C0.416204 6.15995 0.353714 6.25854 0.353714 6.2767C0.353714 6.29492 1.03892 6.30982 1.8764 6.30982H3.39908L3.9692 5.12013C4.28277 4.4658 4.53933 3.91385 4.53933 3.89359C4.53933 3.87332 3.98318 3.85673 3.3034 3.85673H2.06752L1.34948 4.86425ZM4.99067 5.03947C4.67634 5.68995 4.41966 6.24195 4.42031 6.26601C4.4209 6.29008 5.03837 6.30982 5.79237 6.30982H7.16336L7.41409 5.15628C7.55198 4.52187 7.66458 3.96992 7.66428 3.92974C7.66393 3.87408 7.41409 3.85673 6.61298 3.85673H5.56216L4.99067 5.03947ZM8.585 3.95894C8.54957 4.07973 8.07648 6.24066 8.07648 6.28167C8.07648 6.29714 8.71316 6.30982 9.49133 6.30982C10.2695 6.30982 10.9062 6.29714 10.9062 6.28167C10.9062 6.24066 10.4331 4.07973 10.3977 3.95894C10.3708 3.86754 10.2752 3.85673 9.49133 3.85673C8.70744 3.85673 8.61182 3.86754 8.585 3.95894ZM11.3184 3.92974C11.3181 3.96992 11.4307 4.52187 11.5686 5.15628L11.8193 6.30982H13.1903C13.9443 6.30982 14.5618 6.29008 14.5624 6.26601C14.563 6.24195 14.3063 5.68995 13.992 5.03947L13.4205 3.85673H12.3697C11.5686 3.85673 11.3187 3.87408 11.3184 3.92974ZM14.4433 3.89242C14.4433 3.91333 14.6999 4.4658 15.0135 5.12013L15.5836 6.30982H17.1063C17.9437 6.30982 18.6269 6.29008 18.6243 6.26601C18.6218 6.24195 18.2426 5.69655 17.7819 5.05407L16.944 3.88593L15.6937 3.87016C15.006 3.86152 14.4433 3.87151 14.4433 3.89242ZM0 7.58542C0 8.06506 0.181161 8.8063 0.381009 9.14413C0.720693 9.71838 1.2186 9.96597 1.93163 9.9151C2.45242 9.87789 2.7361 9.77527 3.03387 9.51629L3.24238 9.33488V8.26037V7.18592H1.62119H0V7.58542ZM4.12667 8.25652V9.32717L4.39413 9.51746C5.15427 10.0583 6.01674 10.0622 6.7998 9.52844L7.07429 9.34137V8.26364V7.18592H5.60048H4.12667V8.25652ZM7.95857 8.2616V9.33734L8.30409 9.56588C8.75455 9.86393 9.08934 9.95335 9.62421 9.9186C10.0557 9.89056 10.4668 9.73322 10.8591 9.44586L11.0241 9.32501V8.25547V7.18592H9.49133H7.95857V8.2616ZM11.9084 8.26364V9.34137L12.1829 9.52844C12.9659 10.0622 13.8284 10.0583 14.5885 9.51746L14.856 9.32717V8.25652V7.18592H13.3822H11.9084V8.26364ZM15.7403 8.26037V9.33488L15.9571 9.52348C16.0763 9.62715 16.267 9.75056 16.3807 9.79764C16.6619 9.91405 17.3665 9.95908 17.6621 9.87953C18.4329 9.67201 18.8913 8.91494 18.966 7.72618L19 7.18592H17.3701H15.7403V8.26037ZM3.53414 10.2373C3.15549 10.541 2.36087 10.8036 1.81279 10.8062L1.59171 10.8071V15.4797V20.1522H9.49133H17.391V15.4797V10.8071L17.1699 10.8067C16.5273 10.8054 15.694 10.5273 15.4139 10.2207C15.3205 10.1185 15.3058 10.122 15.0418 10.3099C14.501 10.6948 14.2115 10.7733 13.3232 10.7758C12.5746 10.7778 12.5082 10.7685 12.2031 10.6197C12.0248 10.5326 11.7872 10.3853 11.6751 10.2923L11.4712 10.1232L11.174 10.3105C10.5909 10.6777 10.2436 10.7728 9.49133 10.7713C8.72307 10.7698 8.34011 10.6656 7.8014 10.3117C7.56047 10.1533 7.48377 10.1273 7.43401 10.1867C7.30031 10.3463 6.77381 10.5771 6.27206 10.696C5.37882 10.9077 4.60117 10.7799 3.94657 10.314L3.67733 10.1223L3.53414 10.2373ZM6.93799 11.9529C7.2538 12.1865 7.31181 12.3432 7.71716 14.0584C7.9377 14.9916 8.1369 15.7852 8.15978 15.8219C8.18908 15.8689 8.6245 15.8885 9.63477 15.8885H11.0682L11.6268 14.5598L12.1855 13.231L10.411 13.2015C9.43503 13.1853 8.59255 13.1505 8.53878 13.1243C8.40679 13.0599 8.2926 12.7712 8.34029 12.6224C8.43644 12.3222 8.40967 12.3257 10.592 12.3257H12.6276L12.822 12.5183C13.0848 12.7787 13.1661 13.0822 13.0574 13.3982C12.8627 13.9646 11.8423 16.3252 11.7471 16.4295C11.6899 16.4922 11.5446 16.5932 11.4244 16.654C11.2259 16.7544 11.0598 16.7646 9.63023 16.7646C8.15724 16.7646 8.03833 16.7568 7.80252 16.6437C7.65786 16.5743 7.4955 16.4348 7.42169 16.3165C7.34134 16.1876 7.15275 15.5149 6.91942 14.5246C6.71391 13.6525 6.53157 12.8799 6.51412 12.8076C6.48382 12.6815 6.45694 12.6761 5.8499 12.6753C5.50197 12.6748 5.1881 12.6551 5.15244 12.6315C5.02316 12.546 4.9444 12.3178 4.98342 12.1418C5.04585 11.8602 5.27028 11.794 6.08683 11.8165C6.66928 11.8326 6.8047 11.8543 6.93799 11.9529ZM8.51278 17.5469C8.78444 17.6594 8.90181 17.8484 8.90181 18.1732C8.90181 18.3937 8.86897 18.4809 8.73079 18.6275C8.58205 18.7852 8.51992 18.8089 8.25463 18.8089C7.99601 18.8089 7.92326 18.7829 7.77718 18.6382C7.63404 18.4963 7.60486 18.4194 7.60486 18.1839C7.60486 17.8532 7.71763 17.663 7.98086 17.5495C8.2159 17.4481 8.27338 17.4478 8.51278 17.5469ZM11.0516 17.5485C11.5199 17.7424 11.5727 18.5006 11.1335 18.7256C10.8954 18.8476 10.5374 18.8307 10.3555 18.6889C10.2709 18.623 10.173 18.4637 10.138 18.3351C10.0541 18.0262 10.1989 17.7136 10.4935 17.5679C10.7434 17.4441 10.7951 17.4423 11.0516 17.5485ZM1.61547 21.1097C1.59802 21.1547 1.59219 21.8061 1.6025 22.5573C1.62072 23.8897 1.62485 23.9302 1.77181 24.2128C1.9604 24.5756 2.32125 24.8532 2.71216 24.9362C2.91885 24.9801 5.03041 25 9.49133 25C13.9523 25 16.0638 24.9801 16.2705 24.9362C16.6614 24.8532 17.0223 24.5755 17.2109 24.2127C17.3604 23.9252 17.3615 23.9122 17.3615 22.4903V21.0575L9.5043 21.0427C2.81268 21.0301 1.64241 21.04 1.61547 21.1097ZM10.5339 22.0834C10.9465 22.2378 11.1865 22.7 11.1267 23.2253C11.0938 23.5144 10.9667 23.7234 10.7068 23.9159C10.5598 24.0248 10.4472 24.0379 9.53142 24.0531C8.35119 24.0727 8.20735 24.0303 7.96966 23.5921C7.85381 23.3786 7.83501 23.2751 7.8577 22.9771C7.89207 22.5256 8.03851 22.2697 8.34176 22.1313C8.53748 22.0421 8.72979 22.0236 9.47276 22.0225C9.96543 22.0218 10.4426 22.0492 10.5339 22.0834Z" fill="#04E061"/>
</svg>
